<svg width="74" height="73" viewBox="0 0 74 73" fill="none" xmlns="http://www.w3.org/2000/svg">
<g filter="url(#filter0_d_67_517)">
<rect opacity="0.5" x="4.30371" width="65" height="65" rx="32.5" fill="#7C3B3B"/>
<path d="M51.0108 33.7071C51.4013 33.3166 51.4013 32.6834 51.0108 32.2929L44.6469 25.9289C44.2563 25.5384 43.6232 25.5384 43.2326 25.9289C42.8421 26.3195 42.8421 26.9526 43.2326 27.3431L48.8895 33L43.2326 38.6569C42.8421 39.0474 42.8421 39.6805 43.2326 40.0711C43.6232 40.4616 44.2563 40.4616 44.6469 40.0711L51.0108 33.7071ZM23.3037 34L50.3037 34L50.3037 32L23.3037 32L23.3037 34Z" fill="white"/>
</g>
<defs>
<filter id="filter0_d_67_517" x="0.303711" y="0" width="73" height="73" filterUnits="userSpaceOnUse" color-interpolation-filters="sRGB">
<feFlood flood-opacity="0" result="BackgroundImageFix"/>
<feColorMatrix in="SourceAlpha" type="matrix" values="0 0 0 0 0 0 0 0 0 0 0 0 0 0 0 0 0 0 127 0" result="hardAlpha"/>
<feOffset dy="4"/>
<feGaussianBlur stdDeviation="2"/>
<feComposite in2="hardAlpha" operator="out"/>
<feColorMatrix type="matrix" values="0 0 0 0 0 0 0 0 0 0 0 0 0 0 0 0 0 0 0.25 0"/>
<feBlend mode="normal" in2="BackgroundImageFix" result="effect1_dropShadow_67_517"/>
<feBlend mode="normal" in="SourceGraphic" in2="effect1_dropShadow_67_517" result="shape"/>
</filter>
</defs>
</svg>
