<svg width="80" height="87" viewBox="0 0 80 87" fill="none" xmlns="http://www.w3.org/2000/svg">
<path d="M29.3094 7.76166C29.6777 7.65543 30.0601 7.59878 30.4567 7.59878C31.002 7.59878 31.5189 7.70501 32.0005 7.89621C32.4962 8.09451 32.9424 8.38486 33.3177 8.73895C33.6931 9.10012 33.9976 9.52503 34.203 10.0066C34.4012 10.4669 34.5145 10.9768 34.5145 11.5009V13.3209H41.9434C43.7421 10.7219 46.6103 7.73333 48.579 5.68669C49.2093 5.02808 49.7546 4.46154 50.1229 4.05788V4.05079C50.1299 4.03663 50.1441 4.02247 50.1583 4.01538C50.8948 3.09475 51.6879 2.4928 52.4669 2.15287C53.3663 1.75629 54.2586 1.70672 55.0376 1.91209C55.3492 1.99707 55.6467 2.11746 55.9158 2.28034C56.192 2.44322 56.4469 2.64151 56.6735 2.87521C56.9001 3.10183 57.0984 3.36386 57.2684 3.65421C57.4313 3.93748 57.5658 4.24908 57.6579 4.57485C57.8774 5.34676 57.8916 6.21783 57.6296 7.1243C57.403 7.91746 56.9639 8.73187 56.2628 9.51087L56.2415 9.53211C56.1424 9.64542 55.9583 9.84371 55.7175 10.127L55.3776 10.5165H55.5263C55.675 10.5165 55.8237 10.5236 55.9724 10.5377C56.107 10.5519 56.2486 10.5661 56.3832 10.5873H71.9207C72.4164 10.5873 72.8979 10.7006 73.337 10.8989C73.7832 11.1043 74.1939 11.4088 74.5268 11.7912C74.8596 12.1665 75.1358 12.6127 75.3199 13.1084C75.497 13.5829 75.5961 14.107 75.5961 14.6452C75.5961 15.0488 75.5395 15.4454 75.4332 15.8278C75.3837 16.012 75.3199 16.189 75.2491 16.359H75.3907C75.8935 16.359 76.368 16.4723 76.8071 16.6706C77.2533 16.8759 77.664 17.1875 77.9968 17.5629C78.3297 17.9382 78.5988 18.3844 78.7829 18.8801C78.96 19.3546 79.0591 19.8786 79.0591 20.4169C79.0591 20.9551 78.96 21.4791 78.7829 21.9536C78.5988 22.4493 78.3297 22.8955 77.9968 23.2708C77.6569 23.6462 77.2533 23.9507 76.8071 24.1631C76.368 24.3685 75.8935 24.4747 75.3907 24.4747H75.2633C75.3412 24.6518 75.4049 24.8359 75.4616 25.02C75.5749 25.4095 75.6315 25.8132 75.6315 26.2239V26.231C75.6315 26.7692 75.5324 27.2933 75.3553 27.7678C75.1712 28.2635 74.9021 28.7096 74.5693 29.085C74.2293 29.4603 73.8257 29.7719 73.3795 29.9773C72.9404 30.1827 72.466 30.2889 71.9632 30.2889H71.6445C71.7153 30.4518 71.7719 30.6288 71.8144 30.7988C71.9136 31.16 71.9632 31.5494 71.9632 31.9389V31.9531C71.9632 32.4913 71.864 33.0012 71.687 33.4757C71.5028 33.9714 71.2337 34.4176 70.9009 34.7929C70.561 35.1683 70.1573 35.4728 69.7111 35.6852C69.2721 35.8906 68.7976 35.9968 68.2948 35.9968H67.7141V47.8305C70.3131 49.7568 73.3016 52.8303 75.3553 54.9407C76.0069 55.6134 76.5663 56.1871 76.9841 56.5907L76.9983 56.5978C77.0125 56.612 77.0196 56.619 77.0337 56.6332C77.9473 57.4193 78.5421 58.262 78.8821 59.0906C79.2716 60.0466 79.3211 60.9885 79.1158 61.8171C79.0308 62.1429 78.9104 62.4615 78.7546 62.7519C78.5917 63.0493 78.3934 63.3184 78.1668 63.5592C77.9331 63.8071 77.6711 64.0195 77.3878 64.1895C77.1045 64.3595 76.7929 64.5011 76.4601 64.6073C75.6882 64.841 74.803 64.8552 73.8965 64.579C73.0962 64.3311 72.2747 63.8567 71.4887 63.0989C71.3754 62.9927 71.1629 62.7873 70.8938 62.5324L70.5114 62.1712V62.3482C70.5114 62.504 70.5043 62.6598 70.4901 62.8227C70.476 62.9643 70.4618 63.106 70.4406 63.2618V79.3871C70.4406 79.9111 70.3272 80.421 70.129 80.8813C69.9236 81.3629 69.6191 81.7878 69.2437 82.149C68.8684 82.5101 68.4222 82.8005 67.9265 82.9917C67.445 83.1829 66.928 83.2891 66.3827 83.2891C65.9719 83.2891 65.5754 83.2254 65.2 83.1192C65.0159 83.0625 64.8388 82.9988 64.6689 82.9209V83.0979C64.6689 83.622 64.5556 84.1319 64.3573 84.5922C64.1519 85.0737 63.8474 85.4987 63.4721 85.8598C63.0967 86.221 62.6506 86.5114 62.1548 86.7026C61.6733 86.8938 61.1563 87 60.611 87C60.0657 87 59.5487 86.8938 59.0672 86.7026C58.5714 86.5043 58.1253 86.2139 57.75 85.8598C57.3746 85.4987 57.0701 85.0737 56.8647 84.5922C56.6664 84.1319 56.5531 83.622 56.5531 83.0979V82.9421C56.3903 83.02 56.2132 83.0838 56.0432 83.1404L56.0149 83.1546C55.6254 83.275 55.2147 83.3316 54.8039 83.3316H54.7968C54.2515 83.3316 53.7346 83.2254 53.253 83.0342C52.7573 82.8359 52.3111 82.5455 51.9358 82.1915C51.5605 81.8303 51.2559 81.4054 51.0506 80.9238C50.8523 80.4635 50.739 79.9536 50.739 79.4296V79.0684C50.5761 79.1392 50.4061 79.2029 50.2291 79.2525C49.8608 79.3587 49.4784 79.4154 49.0818 79.4154C48.5365 79.4154 48.0196 79.3092 47.538 79.118C47.0423 78.9197 46.5961 78.6293 46.2208 78.2752C45.8454 77.914 45.5409 77.4891 45.3356 77.0076C45.1373 76.5473 45.024 76.0374 45.024 75.5133V73.6933H37.6022C35.8034 76.2923 32.9353 79.2808 30.9666 81.3275C30.3292 81.9861 29.791 82.5526 29.4227 82.9563L29.3802 83.0059C28.6437 83.9194 27.8577 84.5143 27.0787 84.8613C26.1793 85.2579 25.287 85.3074 24.508 85.1021C24.1964 85.0171 23.8989 84.8967 23.6298 84.7338C23.3536 84.5709 23.0987 84.3727 22.8721 84.1389C22.6525 83.9194 22.4613 83.6645 22.2984 83.3812L22.2843 83.3529C22.1214 83.0696 21.9939 82.758 21.8948 82.4322C21.6752 81.6603 21.6611 80.7893 21.9231 79.8828C22.1497 79.0896 22.5888 78.2752 23.2899 77.4962L23.3111 77.475C23.4103 77.3617 23.5944 77.1634 23.8352 76.8801L24.1751 76.4906H24.0264C23.8777 76.4906 23.729 76.4835 23.5802 76.4694C23.4457 76.4552 23.304 76.441 23.1695 76.4198H7.44788C6.95216 76.4198 6.47059 76.3065 6.03152 76.1082C5.58537 75.9028 5.17462 75.5912 4.84178 75.2159C4.50893 74.8405 4.23274 74.3944 4.0557 73.8987C3.87865 73.4242 3.77951 72.9001 3.77951 72.3619C3.77951 71.9582 3.83616 71.5617 3.94239 71.1792C3.99196 70.9951 4.0557 70.8181 4.12652 70.6481H3.98488C3.48207 70.6481 3.00759 70.5348 2.56852 70.3365C2.12237 70.1311 1.71162 69.8195 1.37878 69.4442C1.04593 69.0689 0.776822 68.6227 0.592695 68.127C0.408568 67.6596 0.309422 67.1355 0.309422 66.5973C0.309422 66.0591 0.408568 65.535 0.585613 65.0606C0.76974 64.5648 1.03885 64.1187 1.37169 63.7433C1.71162 63.368 2.11528 63.0635 2.56144 62.851C3.00051 62.6457 3.47499 62.5394 3.9778 62.5394H4.10527C4.02737 62.3624 3.96363 62.1783 3.90698 61.9941C3.79367 61.6046 3.73702 61.201 3.73702 60.7902V60.7832C3.73702 60.2449 3.83616 59.7209 4.01321 59.2464C4.19733 58.7507 4.46644 58.3045 4.79929 57.9292C5.13921 57.5538 5.54288 57.2422 5.98903 57.0369C6.4281 56.8315 6.90259 56.7253 7.40539 56.7253H7.72407C7.66034 56.5624 7.60368 56.3995 7.55411 56.2295L7.54703 56.2154C7.44788 55.8542 7.39831 55.4647 7.39831 55.0752V55.0611C7.39831 54.5228 7.49746 54.0129 7.6745 53.5385C7.85863 53.0427 8.12774 52.5966 8.46058 52.2212C8.80051 51.8459 9.20417 51.5343 9.65033 51.3289C10.0894 51.1236 10.5639 51.0173 11.0667 51.0173H11.8244V39.1836C9.22542 37.2574 6.23689 34.1839 4.18317 32.0735C3.52456 31.3937 2.9651 30.82 2.54727 30.4164L2.51186 30.381C1.59831 29.5949 0.996358 28.7521 0.656431 27.9236C0.266932 26.9675 0.217359 26.0256 0.422731 25.1971C0.507713 24.8713 0.628104 24.5526 0.783903 24.2623C0.946785 23.9648 1.14508 23.6957 1.37169 23.4549C1.60539 23.2071 1.86742 22.9946 2.15069 22.8247C2.43396 22.6547 2.74556 22.5131 3.07841 22.4068C3.85033 22.1731 4.73555 22.159 5.64202 22.4352C6.44227 22.683 7.26376 23.1575 8.04984 23.9153C8.16315 24.0215 8.3756 24.2269 8.64471 24.4818L9.02713 24.843V24.6659C9.02713 24.5101 9.03421 24.3543 9.04837 24.1915C9.06254 24.0498 9.0767 23.9082 9.09795 23.7524V7.62002C9.09795 7.09597 9.21125 6.58608 9.40954 6.12576C9.61492 5.6442 9.91944 5.21929 10.2948 4.85812C10.6701 4.49695 11.1163 4.20659 11.612 4.01538C12.0935 3.82418 12.6105 3.71795 13.1558 3.71795C13.5666 3.71795 13.9631 3.78168 14.3385 3.88791C14.5226 3.94457 14.6997 4.0083 14.8696 4.0862V3.90208C14.8696 3.37802 14.9829 2.86813 15.1812 2.40781C15.3866 1.92625 15.6911 1.50134 16.0664 1.14017C16.4418 0.778999 16.8879 0.488645 17.3837 0.297436C17.8652 0.106227 18.3893 0 18.9346 0C19.4799 0 19.9968 0.106227 20.4784 0.297436C20.9741 0.495726 21.4203 0.786081 21.7956 1.14017C22.171 1.50134 22.4755 1.92625 22.6809 2.40781C22.8791 2.86813 22.9924 3.37802 22.9924 3.90208V4.05788C23.1695 3.97998 23.3465 3.90916 23.5307 3.8525C23.9202 3.73211 24.3309 3.66838 24.7417 3.66838H24.7487C25.294 3.66838 25.811 3.7746 26.2926 3.96581C26.7883 4.1641 27.2345 4.45446 27.6098 4.80855C27.9851 5.16972 28.2896 5.59463 28.495 6.07619C28.6933 6.53651 28.8066 7.0464 28.8066 7.57045V7.93162C28.9624 7.87497 29.1324 7.81123 29.3094 7.76166ZM14.5722 40.1963V51.0173H23.1483H23.1553C23.212 51.0173 23.2686 51.0244 23.3253 51.0315C23.3536 51.0386 23.382 51.0386 23.4032 51.0457C23.4882 51.0386 23.5802 51.0315 23.6723 51.0244C23.7927 51.0173 23.9131 51.0103 24.0193 51.0103H28.7712V39.3111C28.7712 37.484 28.8279 37.4486 29.3732 37.1016C29.5998 36.96 29.9539 36.7333 30.5062 36.011C31.0232 35.3453 31.4269 34.5946 31.7102 33.7873C31.9793 33.0083 32.1209 32.1726 32.1209 31.3087V24.6589C32.1209 24.6022 32.1209 24.5526 32.1138 24.496V11.5079C32.1138 11.3026 32.0713 11.1043 32.0005 10.9272L31.9934 10.9131C31.9084 10.7219 31.7881 10.5448 31.6323 10.3961C31.4835 10.2545 31.3065 10.1341 31.1082 10.0562L31.094 10.0491C30.9028 9.97118 30.6833 9.92869 30.4567 9.92869C30.2301 9.92869 30.0176 9.97118 29.8193 10.0491C29.6139 10.127 29.4298 10.2474 29.2811 10.3961C29.1253 10.5448 29.0049 10.7148 28.9199 10.906C28.842 11.0901 28.7995 11.2884 28.7995 11.5009V18.441V18.4764C28.7995 18.6747 28.6367 18.8376 28.4384 18.8376H26.76C26.5617 18.8376 26.3988 18.6747 26.3988 18.4764V7.58462C26.3988 7.37216 26.3563 7.17387 26.2784 6.98974C26.1934 6.79853 26.073 6.62149 25.9172 6.47985C25.7614 6.33114 25.5844 6.21074 25.379 6.13284C25.1878 6.05494 24.9683 6.01245 24.7417 6.01245C24.515 6.01245 24.3026 6.05494 24.1043 6.13284C23.8989 6.21074 23.7148 6.33114 23.5661 6.47985C23.4103 6.62857 23.2899 6.79853 23.2049 6.98974C23.127 7.17387 23.0845 7.37216 23.0845 7.58462V18.4764C23.0845 18.6747 22.9216 18.8376 22.7233 18.8376H20.9458C20.7475 18.8376 20.5846 18.6747 20.5846 18.4764V3.90916C20.5846 3.70379 20.5421 3.50549 20.4713 3.32845L20.4642 3.31429C20.3793 3.12308 20.2589 2.94603 20.1031 2.8044C19.9473 2.65568 19.7631 2.53529 19.5649 2.45739C19.3736 2.37949 19.1541 2.337 18.9275 2.337C18.708 2.337 18.4955 2.37949 18.3114 2.45031H18.2972C18.0918 2.52821 17.9077 2.6486 17.759 2.79731C17.6032 2.94603 17.4828 3.116 17.3978 3.3072C17.3199 3.49133 17.2774 3.68962 17.2774 3.90208V18.4764C17.2774 18.6747 17.1146 18.8376 16.9163 18.8376H15.1812C14.9829 18.8376 14.82 18.6747 14.82 18.4764V7.62002C14.82 7.40757 14.7776 7.20928 14.6997 7.02515C14.6147 6.83394 14.4872 6.6569 14.3385 6.51526C14.1827 6.36654 14.0056 6.24615 13.8003 6.16825C13.6091 6.09035 13.3895 6.04786 13.1629 6.04786C12.9363 6.04786 12.7238 6.09035 12.5255 6.16825C12.3272 6.24615 12.1502 6.35946 12.0015 6.5011L11.9873 6.51526C11.8315 6.66398 11.7111 6.83394 11.6262 7.03223C11.5483 7.21636 11.5058 7.41465 11.5058 7.62711C11.5058 10.2615 11.4916 13.2147 11.4845 16.1607C11.4704 18.7597 11.4633 21.3517 11.4633 24.6659L11.265 27.8669C11.2579 27.9944 11.18 28.1148 11.0596 28.1714L10.4222 28.4689C10.3656 28.4972 10.3089 28.5184 10.2381 28.5184C10.1248 28.5184 10.0115 28.5043 9.89819 28.4689C9.78488 28.4335 9.67865 28.391 9.58659 28.3272C9.37414 28.2068 9.10503 28.0156 8.82176 27.789C8.52432 27.5482 8.2198 27.2862 7.92237 27.0242C7.29208 26.4576 6.63348 25.8274 6.38561 25.5866C5.91821 25.1404 5.4579 24.8571 5.03299 24.7013C4.57975 24.5455 4.16193 24.5314 3.81492 24.6376C3.69453 24.673 3.57414 24.7297 3.46083 24.8005C3.34752 24.8713 3.24837 24.9492 3.15631 25.0484C3.06425 25.1404 2.98635 25.2537 2.92261 25.367C2.85887 25.4874 2.8093 25.6149 2.77389 25.7495C2.66766 26.1673 2.71016 26.6559 2.95094 27.18C3.17047 27.6615 3.54581 28.1573 4.11943 28.653L4.14776 28.6742L4.2115 28.7309L4.25399 28.7734C4.48769 29 4.81345 29.3258 5.2242 29.7365C7.12212 31.6344 10.6772 35.1824 13.4108 37.1795C13.4391 37.2007 13.4674 37.222 13.4957 37.2503C13.687 37.4698 13.8498 37.7035 13.9986 37.9514C14.1473 38.1993 14.2677 38.4613 14.3668 38.7304C14.4447 38.9641 14.5084 39.1978 14.5439 39.4457C14.5793 39.6794 14.5934 39.9272 14.5863 40.1893L14.5722 40.1963ZM31.5048 38.44V51.1023C32.4962 51.251 33.4381 51.5626 34.3092 52.0159C35.2723 52.5187 36.1504 53.2056 36.9082 54.02H45.1656C45.3356 53.0569 45.6401 52.1292 46.0721 51.2723C46.5749 50.2667 47.2406 49.3602 48.0408 48.5741V35.9189C47.0494 35.7702 46.1075 35.4586 45.2364 35.0054C44.2662 34.5026 43.3951 33.8156 42.6374 33.0012H34.3729C34.2029 33.9643 33.8984 34.8921 33.4664 35.749C32.9707 36.7404 32.2979 37.654 31.5048 38.44ZM45.024 62.3624V56.7607H37.7014C35.9734 56.7607 35.9451 56.704 35.6122 56.1516C35.4777 55.925 35.2723 55.578 34.5995 55.0186C33.9763 54.5016 33.2823 54.0979 32.5316 53.8217C31.8093 53.5526 31.0303 53.411 30.2301 53.411H24.0193C23.9697 53.411 23.9202 53.411 23.8635 53.4181H11.0809C10.8896 53.4181 10.7126 53.4606 10.5426 53.5385C10.3656 53.6234 10.2098 53.7438 10.0752 53.8926C9.94068 54.0484 9.82737 54.2325 9.74947 54.4308C9.67865 54.6291 9.63616 54.8415 9.63616 55.0752C9.63616 55.3018 9.67865 55.5214 9.74947 55.7197C9.82737 55.925 9.94068 56.1092 10.0752 56.265C10.2098 56.4137 10.3656 56.5341 10.5426 56.619C10.7055 56.6969 10.8896 56.7394 11.0809 56.7394H18.2122H18.2476C18.4459 56.7394 18.6088 56.9023 18.6088 57.1006V58.779C18.6088 58.9773 18.4459 59.1402 18.2476 59.1402H7.41248C7.22127 59.1402 7.04422 59.1827 6.87426 59.2606C6.69721 59.3455 6.53433 59.4659 6.39978 59.6147C6.26522 59.7705 6.15191 59.9546 6.07401 60.1529C6.0032 60.3512 5.9607 60.5636 5.9607 60.7973C5.9607 61.0239 6.0032 61.2435 6.07401 61.4418C6.15191 61.6471 6.26522 61.8313 6.39978 61.9871C6.53433 62.1358 6.69013 62.2562 6.87426 62.3411C7.03714 62.419 7.22127 62.4615 7.41248 62.4615H18.2406C18.4388 62.4615 18.6017 62.6244 18.6017 62.8227V64.6003C18.6017 64.7985 18.4388 64.9614 18.2406 64.9614H3.9778C3.78659 64.9614 3.60954 65.0039 3.43958 65.0818C3.26254 65.1668 3.09965 65.2872 2.97218 65.4359C2.83763 65.5917 2.72432 65.7758 2.64642 65.9812C2.5756 66.1795 2.53311 66.3919 2.53311 66.6256C2.53311 66.8593 2.5756 67.0718 2.64642 67.2701C2.71724 67.4684 2.82346 67.6454 2.95802 67.7941L2.97218 67.8083C3.10674 67.957 3.26962 68.0774 3.44666 68.1624C3.60954 68.2403 3.79367 68.2828 3.98488 68.2828H18.2476C18.4459 68.2828 18.6088 68.4457 18.6088 68.644V70.379C18.6088 70.5773 18.4459 70.7402 18.2476 70.7402H7.44788C7.25668 70.7402 7.07963 70.7827 6.90967 70.8606C6.7397 70.9385 6.5839 71.0518 6.45643 71.1934L6.44227 71.2147C6.30771 71.3705 6.1944 71.5546 6.1165 71.7529C6.04569 71.9512 6.0032 72.1636 6.0032 72.3973C6.0032 72.6239 6.04569 72.8435 6.1165 73.0418C6.1944 73.2471 6.30063 73.4313 6.44227 73.5871C6.56974 73.7358 6.72554 73.8491 6.8955 73.9341L6.90967 73.9412C7.07255 74.0191 7.25668 74.0615 7.44788 74.0615C9.89819 74.0615 12.823 74.0757 15.7478 74.0828C18.3255 74.0969 20.9033 74.104 24.0193 74.104L27.0078 74.3023C27.1353 74.3094 27.2557 74.3873 27.3124 74.5148L27.5956 75.1521C27.624 75.2017 27.6381 75.2584 27.6381 75.3221C27.6381 75.4354 27.624 75.5487 27.5956 75.6549C27.5673 75.7541 27.5248 75.8532 27.4682 75.9524C27.3548 76.1719 27.1707 76.441 26.9583 76.7314C26.7529 77.0005 26.505 77.3121 26.2359 77.6308C25.7119 78.254 25.1524 78.8843 24.9187 79.1463L24.8975 79.1746C24.4796 79.642 24.2105 80.1023 24.076 80.5272C23.9272 80.9875 23.9202 81.4054 24.0193 81.7595C24.0547 81.8869 24.1043 82.0073 24.168 82.1136C24.2318 82.2269 24.3097 82.326 24.4017 82.4181C24.4867 82.5101 24.5859 82.581 24.6992 82.6447C24.8054 82.7084 24.9258 82.758 25.0462 82.7863C25.4215 82.8855 25.8747 82.843 26.3492 82.6164C26.7883 82.4039 27.2557 82.0286 27.7089 81.462L27.7302 81.4266L27.7868 81.3629L27.8364 81.3062C28.0772 81.0442 28.3675 80.7326 28.7216 80.3502C30.4921 78.4523 33.8064 74.8972 35.676 72.1636C35.6972 72.1353 35.7185 72.107 35.7468 72.0786C35.9522 71.8945 36.1717 71.7175 36.4054 71.5687C36.6391 71.42 36.8799 71.2926 37.1419 71.2005C37.3614 71.1226 37.581 71.0589 37.8218 71.0234C38.0484 70.988 38.2821 70.9739 38.5229 70.981H45.0381V63.3184V63.3114C45.0381 63.2547 45.0452 63.1981 45.0523 63.1414C45.0594 63.1131 45.0664 63.0777 45.0664 63.0493C45.0594 62.9573 45.0452 62.8581 45.0452 62.7519C45.024 62.5961 45.024 62.4757 45.024 62.3624ZM34.5216 24.6589V30.2606H41.8442C43.5722 30.2606 43.6005 30.3172 43.9334 30.8696C44.0679 31.0962 44.2733 31.4432 44.9461 32.0027C45.5693 32.5197 46.2633 32.9233 47.0139 33.1995C47.7363 33.4686 48.5153 33.6103 49.3155 33.6103H55.5263C55.5758 33.6103 55.6254 33.6103 55.6821 33.6032H68.2877C68.4789 33.6032 68.6559 33.5607 68.8259 33.4828C69.003 33.3978 69.1588 33.2774 69.3004 33.1287C69.4349 32.9729 69.5482 32.7888 69.6262 32.5905C69.697 32.3922 69.7395 32.1797 69.7395 31.946C69.7395 31.7194 69.697 31.4999 69.6262 31.3016C69.5482 31.0962 69.4349 30.9121 69.3004 30.7563C69.1658 30.6076 69.01 30.4872 68.833 30.4022C68.6701 30.3243 68.486 30.2818 68.2948 30.2818H61.3404H61.305C61.1067 30.2818 60.9439 30.1189 60.9439 29.9206V28.2422C60.9439 28.044 61.1067 27.8811 61.305 27.8811H71.9632C72.1544 27.8811 72.3314 27.8386 72.5014 27.7607C72.6713 27.6828 72.8271 27.5695 72.9546 27.4278L72.9688 27.4066C73.1033 27.2508 73.2166 27.0667 73.2945 26.8684C73.3653 26.6701 73.4078 26.4576 73.4078 26.2239C73.4078 25.9973 73.3653 25.7778 73.2945 25.5795C73.2166 25.3741 73.1033 25.19 72.9688 25.0342C72.8342 24.8855 72.6784 24.7651 72.4943 24.6801C72.3314 24.6022 72.1473 24.5597 71.9561 24.5597H61.2979C61.0997 24.5597 60.9368 24.3968 60.9368 24.1985V22.421C60.9368 22.2227 61.0997 22.0598 61.2979 22.0598H75.3907C75.5819 22.0598 75.759 22.0173 75.929 21.9394C76.106 21.8545 76.2689 21.7341 76.4034 21.5853C76.538 21.4295 76.6513 21.2454 76.7292 21.0471C76.8 20.8488 76.8425 20.6364 76.8425 20.4027C76.8425 20.1761 76.8 19.9565 76.7292 19.7582C76.6584 19.56 76.5522 19.3829 76.4176 19.2342L76.4034 19.22C76.2689 19.0713 76.106 18.9509 75.936 18.8659C75.7732 18.788 75.589 18.7455 75.3978 18.7455H61.305C61.1067 18.7455 60.9439 18.5827 60.9439 18.3844V16.6493C60.9439 16.451 61.1067 16.2882 61.305 16.2882H71.9277C72.1189 16.2882 72.296 16.2457 72.466 16.1678C72.643 16.0828 72.8059 15.9624 72.9404 15.8137C73.075 15.6579 73.1883 15.4737 73.2662 15.2755C73.337 15.0772 73.3795 14.8647 73.3795 14.631C73.3795 14.4044 73.337 14.1849 73.2662 13.9866C73.1883 13.7812 73.0821 13.5971 72.9404 13.4413C72.8059 13.2926 72.643 13.1722 72.466 13.0872C72.3031 13.0093 72.1189 12.9668 71.9277 12.9668C69.4774 12.9668 66.5951 12.9526 63.7199 12.9455C61.1846 12.9385 58.6493 12.9243 55.5404 12.9243L52.5378 12.7473C52.4103 12.7402 52.2899 12.6623 52.2332 12.5348L51.95 11.8974C51.9216 11.8479 51.9075 11.7912 51.9075 11.7275C51.9075 11.6142 51.9216 11.5009 51.95 11.3946C51.9783 11.2955 52.0208 11.1963 52.0774 11.0972C52.1907 10.8777 52.3749 10.6085 52.5873 10.3182C52.7927 10.0491 53.0406 9.73748 53.3097 9.4188C53.8266 8.80269 54.3861 8.17949 54.6269 7.91038L54.6552 7.87497C55.073 7.40757 55.3421 6.94725 55.4767 6.52234C55.6254 6.06203 55.6325 5.6442 55.5334 5.29011C55.4979 5.16264 55.4484 5.04225 55.3846 4.93602C55.3209 4.82271 55.243 4.72357 55.1509 4.6315C55.066 4.53944 54.9668 4.46862 54.8535 4.40488C54.7473 4.33407 54.6269 4.28449 54.5065 4.24908C54.1312 4.14994 53.6779 4.19243 53.2034 4.41905C52.7644 4.6315 52.297 5.00684 51.8437 5.57338L51.8225 5.60879L51.7658 5.67253L51.7021 5.73626C51.4613 5.99829 51.171 6.30989 50.8169 6.69231C49.0464 8.59023 45.7321 12.1453 43.8625 14.8789C43.8413 14.9072 43.82 14.9355 43.7917 14.9639C43.5863 15.148 43.3668 15.3179 43.1331 15.4737C42.8994 15.6225 42.6586 15.7499 42.3966 15.842C42.1771 15.9199 41.9575 15.9836 41.7168 16.019C41.4901 16.0545 41.2564 16.0686 41.0156 16.0615H34.5004V23.7241V23.7311C34.5004 23.7878 34.4933 23.8444 34.4862 23.9011C34.4791 23.9294 34.4721 23.9648 34.4721 23.9932C34.4791 24.0852 34.4933 24.1844 34.4933 24.2906C34.5146 24.4252 34.5216 24.5455 34.5216 24.6589ZM55.5192 36.011H50.7673V47.7172C50.7673 49.5443 50.7106 49.5797 50.1653 49.9267C49.9387 50.0684 49.5846 50.295 49.0323 51.0173C48.5153 51.683 48.1116 52.4337 47.8283 53.241C47.5592 54.02 47.4176 54.8557 47.4176 55.7197V62.3695C47.4176 62.4261 47.4176 62.4757 47.4247 62.5324V75.5204C47.4247 75.7258 47.4672 75.917 47.538 76.094L47.5451 76.1082C47.6301 76.2994 47.7504 76.4764 47.9062 76.6252C48.062 76.7739 48.2462 76.8943 48.4445 76.9722C48.6357 77.0501 48.8552 77.0926 49.0818 77.0926C49.3084 77.0926 49.5209 77.0501 49.7192 76.9722C49.9246 76.8943 50.1087 76.7739 50.2574 76.6252C50.4132 76.4764 50.5336 76.3065 50.6186 76.1153C50.6965 75.9311 50.739 75.7328 50.739 75.5204V68.5802V68.5448C50.739 68.3465 50.9019 68.1836 51.1001 68.1836H52.7785C52.9768 68.1836 53.1397 68.3465 53.1397 68.5448V79.4366C53.1397 79.6491 53.1822 79.8474 53.2601 80.0315C53.338 80.2156 53.4584 80.3856 53.6 80.5272L53.6213 80.5414C53.77 80.683 53.947 80.8034 54.1453 80.8813L54.1595 80.8884C54.3507 80.9663 54.5702 81.0088 54.7968 81.0088C55.0235 81.0088 55.2359 80.9663 55.4342 80.8884C55.6396 80.8105 55.8166 80.6901 55.9724 80.5414C56.1282 80.3927 56.2486 80.2227 56.3336 80.0315C56.4115 79.8474 56.454 79.6491 56.454 79.4366V68.5448C56.454 68.3465 56.6169 68.1836 56.8152 68.1836H58.5927C58.791 68.1836 58.9539 68.3465 58.9539 68.5448V83.1192C58.9539 83.3316 58.9964 83.5299 59.0743 83.714C59.1592 83.9053 59.2796 84.0823 59.4354 84.2239C59.5912 84.3727 59.7754 84.493 59.9736 84.5709C60.1649 84.6488 60.3844 84.6913 60.611 84.6913C60.8305 84.6913 61.043 84.6488 61.2271 84.578L61.2413 84.5709C61.4467 84.493 61.6308 84.3727 61.7795 84.2239C61.9353 84.0752 62.0557 83.9053 62.1407 83.714C62.2186 83.5299 62.2611 83.3316 62.2611 83.1192V68.5448C62.2611 68.3465 62.424 68.1836 62.6222 68.1836H64.3573C64.5556 68.1836 64.7185 68.3465 64.7185 68.5448V79.4012C64.7185 79.6137 64.7609 79.812 64.8389 79.9961C64.9238 80.1873 65.0442 80.3643 65.2 80.5131C65.3558 80.6618 65.5329 80.7822 65.7382 80.8601C65.9295 80.938 66.149 80.9805 66.3756 80.9805C66.6022 80.9805 66.8147 80.938 67.013 80.8601C67.2183 80.7822 67.3954 80.6618 67.5512 80.5131C67.707 80.3643 67.8274 80.1944 67.9124 79.9961C67.9902 79.812 68.0327 79.6137 68.0327 79.4012C68.0327 76.7668 68.0469 73.8137 68.054 70.8676C68.0682 68.2686 68.0752 65.6767 68.0752 62.3624L68.2735 59.1614C68.2806 59.0339 68.3585 58.9136 68.4789 58.8569L69.1163 58.5595C69.1729 58.5311 69.2296 58.5099 69.3004 58.5099C69.4137 58.5099 69.527 58.5241 69.6403 58.5595C69.7536 58.5949 69.8598 58.6374 69.9519 58.7011C70.1644 58.8215 70.4335 59.0127 70.7168 59.2393C71.0142 59.4801 71.3187 59.7421 71.6161 60.0042C72.2464 60.5707 72.905 61.201 73.1529 61.4418C73.6203 61.8879 74.0806 62.1712 74.5055 62.327C74.9587 62.4899 75.3766 62.4969 75.7236 62.3907C75.844 62.3553 75.9644 62.2987 76.0777 62.2278C76.191 62.157 76.2901 62.072 76.3822 61.98C76.4743 61.8879 76.5522 61.7746 76.6159 61.6613C76.6796 61.5409 76.7292 61.4134 76.7646 61.2789C76.8708 60.861 76.8283 60.3724 76.5876 59.8484C76.368 59.3668 75.9927 58.8711 75.4191 58.3753L75.3907 58.3541L75.327 58.2974L75.2845 58.2549C75.0508 58.0283 74.7251 57.7026 74.3214 57.2989C72.4235 55.401 68.8684 51.853 66.1348 49.8488C66.1065 49.8276 66.0782 49.8064 66.0498 49.778C65.8657 49.5585 65.6957 49.3248 65.547 49.0769C65.3983 48.8291 65.2779 48.567 65.1788 48.2979C65.1009 48.0642 65.0371 47.8305 65.0017 47.5827C64.9663 47.349 64.9522 47.1011 64.9592 46.8391V35.9968H56.3832H56.3761C56.3194 35.9968 56.2628 35.9897 56.2061 35.9827C56.1778 35.9756 56.1495 35.9756 56.1282 35.9685C56.0432 35.9756 55.9583 35.9827 55.8662 35.9897H55.8591C55.7458 36.0039 55.6325 36.011 55.5192 36.011Z" fill="white"/>
</svg>
