<svg width="55" height="55" viewBox="0 0 55 55" fill="none" xmlns="http://www.w3.org/2000/svg">
<path d="M27.5 46.1543C23.7884 46.1543 20.1606 45.0524 17.0759 42.9885C13.9912 40.9247 11.5886 37.9916 10.1725 34.5607C8.7564 31.1301 8.39055 27.3562 9.12134 23.7175C9.85211 20.0786 11.6466 16.7386 14.2774 14.1207C16.9083 11.5027 20.257 9.72462 23.8993 9.01169C27.5417 8.29877 31.3138 8.68311 34.7375 10.116C38.1611 11.5489 41.0825 13.9659 43.1312 17.0606C45.18 20.1554 46.2639 23.7887 46.2458 27.5001C46.2156 32.454 44.228 37.195 40.7163 40.6895C37.2048 44.1839 32.4539 46.1483 27.5 46.1543ZM27.5 12.123C24.4752 12.1231 21.5183 13.0192 19.0023 14.6983C16.4864 16.3773 14.5243 18.7641 13.3636 21.5573C12.203 24.3507 11.8958 27.4249 12.481 30.3926C13.0661 33.3603 14.5173 36.0881 16.6513 38.2317C18.7853 40.3754 21.5066 41.8386 24.4716 42.4372C27.4365 43.0355 30.5124 42.7422 33.3108 41.5941C36.1091 40.4459 38.5048 38.4946 40.1952 35.9861C41.8855 33.4777 42.7948 30.5249 42.8083 27.5001C42.8173 25.4841 42.4282 23.486 41.6627 21.6207C40.8975 19.7555 39.7714 18.0598 38.349 16.631C36.9265 15.2022 35.236 14.0685 33.3742 13.2948C31.5123 12.5212 29.516 12.123 27.5 12.123Z" fill="#774B4B"/>
<path d="M27.5 16.2709C27.0442 16.2709 26.6069 16.0898 26.2847 15.7675C25.9623 15.4452 25.7812 15.008 25.7812 14.5521V6.2334C25.7812 5.77756 25.9623 5.34038 26.2847 5.01806C26.6069 4.69574 27.0442 4.51465 27.5 4.51465C27.9558 4.51465 28.3931 4.69574 28.7153 5.01806C29.0377 5.34038 29.2188 5.77756 29.2188 6.2334V14.5521C29.2188 15.008 29.0377 15.4452 28.7153 15.7675C28.3931 16.0898 27.9558 16.2709 27.5 16.2709Z" fill="#774B4B"/>
<path d="M27.5 50.4167C27.0442 50.4167 26.6069 50.2357 26.2847 49.9133C25.9623 49.591 25.7812 49.1538 25.7812 48.698V40.2646C25.7812 39.8088 25.9623 39.3716 26.2847 39.0494C26.6069 38.7269 27.0442 38.5459 27.5 38.5459C27.9558 38.5459 28.3931 38.7269 28.7153 39.0494C29.0377 39.3716 29.2187 39.8088 29.2187 40.2646V48.5834C29.2346 48.8185 29.2016 49.0546 29.1223 49.2764C29.043 49.4982 28.919 49.7015 28.7577 49.8736C28.5966 50.0455 28.4018 50.1825 28.1852 50.2758C27.9689 50.3693 27.7356 50.4172 27.5 50.4167Z" fill="#774B4B"/>
<path d="M48.675 29.2188H40.3562C39.9004 29.2188 39.4632 29.0377 39.141 28.7153C38.8185 28.3931 38.6375 27.9558 38.6375 27.5C38.6375 27.0442 38.8185 26.6069 39.141 26.2847C39.4632 25.9623 39.9004 25.7812 40.3562 25.7812H48.675C49.1308 25.7812 49.5681 25.9623 49.8903 26.2847C50.2127 26.6069 50.3937 27.0442 50.3937 27.5C50.3937 27.9558 50.2127 28.3931 49.8903 28.7153C49.5681 29.0377 49.1308 29.2188 48.675 29.2188Z" fill="#774B4B"/>
<path d="M14.6437 29.1272H6.32498C5.86915 29.1272 5.43199 28.9462 5.10964 28.6237C4.78732 28.3015 4.60623 27.8643 4.60623 27.4084C4.60623 26.9526 4.78732 26.5154 5.10964 26.1932C5.43199 25.8707 5.86915 25.6897 6.32498 25.6897H14.6437C14.8695 25.6897 15.0929 25.7342 15.3015 25.8206C15.51 25.9069 15.6995 26.0334 15.8591 26.1932C16.0187 26.3527 16.1453 26.5422 16.2317 26.7507C16.318 26.9593 16.3625 27.1827 16.3625 27.4084C16.3625 27.6342 16.318 27.8576 16.2317 28.0662C16.1453 28.2747 16.0187 28.4642 15.8591 28.6237C15.6995 28.7834 15.51 28.9099 15.3015 28.9963C15.0929 29.0827 14.8695 29.1272 14.6437 29.1272Z" fill="#774B4B"/>
<path d="M30.7771 29.1958H24.2229C23.7671 29.1958 23.3299 29.0148 23.0077 28.6923C22.6852 28.3701 22.5042 27.9329 22.5042 27.4771C22.5042 27.0212 22.6852 26.584 23.0077 26.2618C23.3299 25.9393 23.7671 25.7583 24.2229 25.7583H30.7771C31.2329 25.7583 31.6702 25.9393 31.9924 26.2618C32.3148 26.584 32.4958 27.0212 32.4958 27.4771C32.4958 27.9329 32.3148 28.3701 31.9924 28.6923C31.6702 29.0148 31.2329 29.1958 30.7771 29.1958Z" fill="#774B4B"/>
<path d="M27.5 32.4043C27.0442 32.4043 26.6069 32.2232 26.2847 31.9008C25.9623 31.5786 25.7812 31.1413 25.7812 30.6855V24.1313C25.7812 23.6755 25.9623 23.2383 26.2847 22.916C26.6069 22.5937 27.0442 22.4126 27.5 22.4126C27.9558 22.4126 28.3931 22.5937 28.7153 22.916C29.0377 23.2383 29.2188 23.6755 29.2188 24.1313V30.6855C29.2188 31.1413 29.0377 31.5786 28.7153 31.9008C28.3931 32.2232 27.9558 32.4043 27.5 32.4043Z" fill="#774B4B"/>
</svg>
