<svg width="45" height="44" viewBox="0 0 45 44" fill="none" xmlns="http://www.w3.org/2000/svg">
<path d="M22.7939 36.9235C19.8246 36.9235 16.9223 36.042 14.4546 34.3909C11.9868 32.7398 10.0648 30.3934 8.93186 27.6487C7.79899 24.9042 7.50632 21.885 8.09095 18.9741C8.67556 16.063 10.1112 13.391 12.2158 11.2966C14.3205 9.20226 16.9995 7.7798 19.9133 7.20945C22.8272 6.63912 25.8449 6.94658 28.5839 8.09289C31.3227 9.2392 33.6599 11.1728 35.2989 13.6486C36.9379 16.1244 37.805 19.0311 37.7905 22.0002C37.7663 25.9633 36.1763 29.7561 33.3669 32.5517C30.5577 35.3472 26.757 36.9187 22.7939 36.9235ZM22.7939 9.69851C20.3741 9.69854 18.0085 10.4154 15.9957 11.7587C13.983 13.102 12.4133 15.0114 11.4848 17.246C10.5562 19.4806 10.3105 21.94 10.7786 24.3142C11.2467 26.6884 12.4077 28.8706 14.1149 30.5855C15.8221 32.3004 17.9991 33.471 20.3711 33.9498C22.7431 34.4285 25.2038 34.1939 27.4425 33.2754C29.6812 32.3569 31.5977 30.7958 32.95 28.789C34.3023 26.7822 35.0297 24.42 35.0405 22.0002C35.0477 20.3874 34.7364 18.7889 34.1241 17.2967C33.5119 15.8045 32.611 14.4479 31.4731 13.3049C30.3351 12.1619 28.9827 11.2549 27.4933 10.636C26.0037 10.0171 24.4067 9.69849 22.7939 9.69851Z" fill="#777373"/>
<path d="M22.7939 13.0168C22.4293 13.0168 22.0795 12.8719 21.8217 12.6141C21.5638 12.3562 21.4189 12.0065 21.4189 11.6418V4.98682C21.4189 4.62215 21.5638 4.2724 21.8217 4.01454C22.0795 3.75669 22.4293 3.61182 22.7939 3.61182C23.1586 3.61182 23.5084 3.75669 23.7662 4.01454C24.0241 4.2724 24.1689 4.62215 24.1689 4.98682V11.6418C24.1689 12.0065 24.0241 12.3562 23.7662 12.6141C23.5084 12.8719 23.1586 13.0168 22.7939 13.0168Z" fill="#777373"/>
<path d="M22.7939 40.3331C22.4293 40.3331 22.0795 40.1883 21.8217 39.9303C21.5638 39.6725 21.4189 39.3227 21.4189 38.9581V32.2114C21.4189 31.8468 21.5638 31.497 21.8217 31.2392C22.0795 30.9813 22.4293 30.8364 22.7939 30.8364C23.1586 30.8364 23.5084 30.9813 23.7662 31.2392C24.0241 31.497 24.1689 31.8468 24.1689 32.2114V38.8664C24.1816 39.0545 24.1552 39.2434 24.0918 39.4208C24.0283 39.5983 23.9291 39.7609 23.8001 39.8986C23.6712 40.0361 23.5154 40.1457 23.3421 40.2203C23.169 40.2951 22.9824 40.3335 22.7939 40.3331Z" fill="#777373"/>
<path d="M39.7341 23.375H33.0791C32.7145 23.375 32.3647 23.2302 32.1069 22.9722C31.8489 22.7145 31.7041 22.3647 31.7041 22C31.7041 21.6353 31.8489 21.2855 32.1069 21.0278C32.3647 20.7698 32.7145 20.625 33.0791 20.625H39.7341C40.0988 20.625 40.4486 20.7698 40.7063 21.0278C40.9643 21.2855 41.1091 21.6353 41.1091 22C41.1091 22.3647 40.9643 22.7145 40.7063 22.9722C40.4486 23.2302 40.0988 23.375 39.7341 23.375Z" fill="#777373"/>
<path d="M12.509 23.3018H5.854C5.48934 23.3018 5.13961 23.1569 4.88173 22.899C4.62387 22.6412 4.479 22.2914 4.479 21.9268C4.479 21.5621 4.62387 21.2123 4.88173 20.9545C5.13961 20.6966 5.48934 20.5518 5.854 20.5518H12.509C12.6896 20.5518 12.8684 20.5873 13.0352 20.6564C13.202 20.7256 13.3536 20.8268 13.4813 20.9545C13.609 21.0821 13.7102 21.2338 13.7793 21.4006C13.8484 21.5674 13.884 21.7462 13.884 21.9268C13.884 22.1073 13.8484 22.2861 13.7793 22.4529C13.7102 22.6198 13.609 22.7714 13.4813 22.899C13.3536 23.0268 13.202 23.128 13.0352 23.1971C12.8684 23.2662 12.6896 23.3018 12.509 23.3018Z" fill="#777373"/>
<path d="M25.4157 23.3564H20.1724C19.8077 23.3564 19.4579 23.2116 19.2002 22.9537C18.9422 22.6959 18.7974 22.3461 18.7974 21.9814C18.7974 21.6168 18.9422 21.267 19.2002 21.0092C19.4579 20.7513 19.8077 20.6064 20.1724 20.6064H25.4157C25.7804 20.6064 26.1302 20.7513 26.3879 21.0092C26.6459 21.267 26.7907 21.6168 26.7907 21.9814C26.7907 22.3461 26.6459 22.6959 26.3879 22.9537C26.1302 23.2116 25.7804 23.3564 25.4157 23.3564Z" fill="#777373"/>
<path d="M22.7939 25.9235C22.4293 25.9235 22.0795 25.7787 21.8217 25.5207C21.5638 25.263 21.4189 24.9132 21.4189 24.5485V19.3052C21.4189 18.9405 21.5638 18.5907 21.8217 18.3329C22.0795 18.075 22.4293 17.9302 22.7939 17.9302C23.1586 17.9302 23.5084 18.075 23.7662 18.3329C24.0241 18.5907 24.1689 18.9405 24.1689 19.3052V24.5485C24.1689 24.9132 24.0241 25.263 23.7662 25.5207C23.5084 25.7787 23.1586 25.9235 22.7939 25.9235Z" fill="#777373"/>
</svg>
