<svg width="101" height="101" viewBox="0 0 101 101" fill="none" xmlns="http://www.w3.org/2000/svg">
<g clip-path="url(#clip0_123_871)" filter="url(#filter0_d_123_871)">
<path d="M46.4658 6.02002C24.3721 6.02002 6.46582 23.9263 6.46582 46.02C6.46582 68.1138 24.3721 86.02 46.4658 86.02C68.5596 86.02 86.4658 68.1138 86.4658 46.02C86.4658 23.9263 68.5596 6.02002 46.4658 6.02002ZM62.4346 39.8013C62.4502 40.145 62.4502 40.5044 62.4502 40.8638C62.4502 51.7231 54.1846 64.2544 39.0596 64.2544C34.4189 64.2544 30.0908 62.895 26.4658 60.5669C27.1064 60.645 27.7627 60.6763 28.4346 60.6763C32.2783 60.6763 35.8252 59.3638 38.6377 57.1606C35.0439 57.0981 31.9971 54.7231 30.9658 51.4575C31.4658 51.5513 31.9814 51.5981 32.5127 51.5981C33.2627 51.5981 33.9971 51.5044 34.6846 51.3013C30.9189 50.5513 28.0908 47.2231 28.0908 43.2388V43.145C29.2002 43.7544 30.4658 44.1294 31.8096 44.1763C29.6064 42.7075 28.1533 40.1763 28.1533 37.3325C28.1533 35.8325 28.5596 34.4106 29.2627 33.1919C33.3252 38.1763 39.3721 41.4419 46.2002 41.7856C46.0596 41.1919 45.9814 40.5669 45.9814 39.9106C45.9814 35.3794 49.6689 31.6919 54.2002 31.6919C56.5596 31.6919 58.7002 32.6919 60.2002 34.2856C62.0752 33.9106 63.8252 33.2388 65.4189 32.2856C64.8096 34.2075 63.4971 35.8169 61.8096 36.8325C63.4658 36.6294 65.0596 36.1919 66.5283 35.5356C65.4346 37.1919 64.0439 38.6294 62.4346 39.8013Z" fill="#DF2E38"/>
</g>
<defs>
<filter id="filter0_d_123_871" x="0.46582" y="0.0200195" width="100" height="100" filterUnits="userSpaceOnUse" color-interpolation-filters="sRGB">
<feFlood flood-opacity="0" result="BackgroundImageFix"/>
<feColorMatrix in="SourceAlpha" type="matrix" values="0 0 0 0 0 0 0 0 0 0 0 0 0 0 0 0 0 0 127 0" result="hardAlpha"/>
<feOffset dx="4" dy="4"/>
<feGaussianBlur stdDeviation="5"/>
<feComposite in2="hardAlpha" operator="out"/>
<feColorMatrix type="matrix" values="0 0 0 0 0 0 0 0 0 0 0 0 0 0 0 0 0 0 0.25 0"/>
<feBlend mode="normal" in2="BackgroundImageFix" result="effect1_dropShadow_123_871"/>
<feBlend mode="normal" in="SourceGraphic" in2="effect1_dropShadow_123_871" result="shape"/>
</filter>
<clipPath id="clip0_123_871">
<rect width="80" height="80" fill="white" transform="translate(6.46582 6.02002)"/>
</clipPath>
</defs>
</svg>
