<svg width="101" height="101" viewBox="0 0 101 101" fill="none" xmlns="http://www.w3.org/2000/svg">
<g clip-path="url(#clip0_123_863)" filter="url(#filter0_d_123_863)">
<path d="M41.1377 53.7231L54.2314 46.0356L41.1377 38.3481V53.7231Z" fill="#DF2E38"/>
<path d="M46.4658 6.02002C24.3721 6.02002 6.46582 23.9263 6.46582 46.02C6.46582 68.1138 24.3721 86.02 46.4658 86.02C68.5596 86.02 86.4658 68.1138 86.4658 46.02C86.4658 23.9263 68.5596 6.02002 46.4658 6.02002ZM66.4658 53.1763C66.4658 60.0669 59.5752 60.0669 59.5752 60.0669H33.3564C26.4658 60.0669 26.4658 53.1763 26.4658 53.1763V38.8794C26.4658 31.9888 33.3564 31.9888 33.3564 31.9888H59.5752C66.4658 31.9888 66.4658 38.8794 66.4658 38.8794V53.1763Z" fill="#DF2E38"/>
</g>
<defs>
<filter id="filter0_d_123_863" x="0.46582" y="0.0200195" width="100" height="100" filterUnits="userSpaceOnUse" color-interpolation-filters="sRGB">
<feFlood flood-opacity="0" result="BackgroundImageFix"/>
<feColorMatrix in="SourceAlpha" type="matrix" values="0 0 0 0 0 0 0 0 0 0 0 0 0 0 0 0 0 0 127 0" result="hardAlpha"/>
<feOffset dx="4" dy="4"/>
<feGaussianBlur stdDeviation="5"/>
<feComposite in2="hardAlpha" operator="out"/>
<feColorMatrix type="matrix" values="0 0 0 0 0 0 0 0 0 0 0 0 0 0 0 0 0 0 0.25 0"/>
<feBlend mode="normal" in2="BackgroundImageFix" result="effect1_dropShadow_123_863"/>
<feBlend mode="normal" in="SourceGraphic" in2="effect1_dropShadow_123_863" result="shape"/>
</filter>
<clipPath id="clip0_123_863">
<rect width="80" height="80" fill="white" transform="translate(6.46582 6.02002)"/>
</clipPath>
</defs>
</svg>
