<svg width="111" height="76" viewBox="0 0 111 76" fill="none" xmlns="http://www.w3.org/2000/svg">
<rect x="0.803711" y="0.5" width="109" height="74.5" rx="5.5" stroke="white"/>
<path d="M20.7784 61.5981C21.3271 61.5868 21.8758 61.5792 22.4245 61.5679C23.9562 61.5603 25.488 61.5565 27.0197 61.5452C28.2619 61.5376 29.5079 61.5187 30.75 61.5036C31.2073 61.4961 31.6645 61.4885 32.1179 61.4772C34.6213 61.4583 37.1209 61.4394 39.6243 61.4205C39.6586 61.394 39.6891 61.3714 39.7234 61.3449C39.7234 61.3147 39.7272 61.2845 39.731 61.2542C39.7386 60.8461 39.7538 60.4418 39.7538 60.0337C39.7538 59.7427 39.8796 59.6596 40.1577 59.739C40.7979 59.9203 40.8284 59.9581 40.7217 60.6081C40.6798 60.8726 40.6493 61.1371 40.615 61.3827H46.1247C46.0866 61.0124 46.0638 60.6988 46.0257 60.3927C45.9914 60.1206 46.098 59.9921 46.3762 59.9997C46.4981 59.9997 46.6201 59.9997 46.742 59.9997C47.4583 59.9997 47.7619 60.3612 47.6527 61.0842C47.6412 61.156 47.6336 61.2278 47.626 61.2882H62.9092C62.8902 60.9935 62.894 60.7743 62.8521 60.559C62.7759 60.1509 62.894 59.9468 63.3436 59.9959C63.717 60.0337 64.1971 59.9241 64.4295 60.1168C64.6124 60.268 64.4981 60.7819 64.5172 61.1673H69.9202C69.8745 60.8612 69.8288 60.5854 69.7907 60.3058C69.7488 60.0073 70.065 59.7465 70.5261 59.7087C70.9109 59.6785 70.8118 59.977 70.8195 60.1849C70.8309 60.4834 70.8195 60.7857 70.8195 61.1409C71.5853 61.1409 72.3284 61.1447 73.0676 61.1409C75.75 61.1182 78.4325 61.0917 81.115 61.0653C82.6391 61.0502 84.1632 61.0426 85.6874 61.0048C85.8588 61.0011 86.0875 60.8726 86.1903 60.729C87.101 59.4631 87.9964 58.1821 88.8766 56.8974C89.0405 56.6555 89.2081 56.5497 89.5053 56.5648C90.0083 56.5913 90.5151 56.5422 91.0142 56.58C91.4067 56.6102 91.5743 56.4704 91.5972 56.0963C91.6048 55.9489 91.662 55.8091 91.7039 55.6315C92.2945 55.8544 92.8698 56.0472 93.4223 56.289C93.7538 56.4364 94.0168 56.4553 94.2568 56.1605C94.4702 55.896 94.7102 55.8998 95.0189 56.0094C96.4554 56.5119 97.8957 56.9918 99.4579 57.5209C99.214 57.536 99.0883 57.5511 98.9664 57.5511C96.0705 57.5511 93.1747 57.5511 90.2788 57.5435C89.9854 57.5435 89.8102 57.6267 89.6577 57.8836C89.09 58.8434 88.4956 59.7881 87.8593 60.8197C88.7356 60.8764 89.532 60.9293 90.3245 60.9822C90.416 60.9897 90.5074 60.9822 90.5989 60.9897C91.1806 61.0099 91.5515 60.7214 91.7115 60.1244C92.4126 60.3549 93.1213 60.5627 93.8072 60.8272C94.1844 60.9746 94.4702 60.9595 94.7331 60.6534C95.0151 60.3247 95.3389 60.3171 95.7543 60.4078C97.6975 60.8386 99.6522 61.2278 101.603 61.6321C101.656 61.6434 101.706 61.6775 101.832 61.7379C99.8618 62.1536 97.9681 62.5541 96.0743 62.9584C95.941 62.9887 95.8038 63.0038 95.6742 63.0491C95.3237 63.17 95.0265 63.1134 94.7826 62.8224C94.5007 62.4861 94.1806 62.4596 93.7691 62.6221C93.1061 62.8829 92.4202 63.0831 91.7077 63.3212C91.6315 63.0151 91.5591 62.7279 91.4791 62.3992C90.2903 62.471 89.1129 62.539 87.8593 62.6146C88.5223 63.6953 89.1433 64.7269 89.7911 65.7396C89.8597 65.8454 90.1112 65.8756 90.2788 65.8756C93.1899 65.8832 96.101 65.8794 99.0121 65.8756C99.115 65.8756 99.214 65.8756 99.3322 65.955C98.5206 66.2308 97.709 66.5067 96.8935 66.7825C96.2725 66.9941 95.6476 67.183 95.0379 67.4173C94.714 67.542 94.4549 67.5345 94.2339 67.2624C93.9977 66.9752 93.7386 67.0092 93.4262 67.1415C92.8698 67.3795 92.2983 67.576 91.7534 67.7801C91.6162 67.4513 91.5743 67.0432 91.3533 66.8959C91.1323 66.7485 90.7284 66.8127 90.416 66.8619C89.4405 67.0206 88.8347 66.6502 88.3432 65.7887C87.703 64.6778 86.9067 63.6537 86.1599 62.607C86.0646 62.4748 85.8512 62.3501 85.6912 62.3501C80.814 62.3349 75.9367 62.3387 71.0557 62.3387C70.9986 62.3387 70.9376 62.3538 70.8652 62.3614C70.7623 63.359 70.4422 64.247 69.6687 64.9309C69.8097 64.0769 70.1908 63.2645 69.9964 62.3576H64.3571C64.5515 62.8904 64.7306 63.359 64.883 63.8351C64.9211 63.956 64.8906 64.1034 64.8906 64.2356C64.7649 64.179 64.5972 64.1563 64.5172 64.058C64.1209 63.5819 63.7627 63.0756 63.3626 62.6032C63.256 62.4748 63.0654 62.3425 62.913 62.3425C57.8224 62.3274 52.7318 62.3274 47.6374 62.3425C47.485 62.3425 47.2983 62.4861 47.1878 62.6146C46.7991 63.0794 46.4486 63.5744 46.0638 64.0391C45.9761 64.1412 45.7932 64.1676 45.656 64.2281C45.656 64.0883 45.6256 63.9409 45.6713 63.8162C45.8275 63.3514 46.0104 62.898 46.2124 62.369H40.5426C40.394 63.2532 40.6988 64.0694 40.9998 64.9083C40.394 64.776 39.9863 63.9409 39.7005 62.3576H12.8643C12.8491 62.6146 12.8377 62.8526 12.8224 63.1209C11.5803 62.7544 10.361 62.3992 9.02734 62.0062C10.361 61.5792 11.5726 61.19 12.8453 60.7819C12.8453 61.0124 12.8186 61.2089 12.8567 61.3903C12.8758 61.4847 13.0129 61.5528 13.0968 61.6321C14.4456 61.6245 15.7945 61.6132 17.1433 61.6019C18.355 61.5905 19.5667 61.5792 20.7822 61.5641L20.7784 61.5981Z" fill="#F8F7F7"/>
<path d="M46.738 34.9733C46.5551 34.1873 46.3875 33.4013 46.1817 32.6229C45.7397 30.9603 45.2749 29.3052 44.8214 27.6463C44.7986 27.5594 44.7909 27.4574 44.7414 27.3894C44.6766 27.3025 44.5776 27.2382 44.4937 27.1664C44.4251 27.2685 44.3261 27.3667 44.2956 27.4763C44.2613 27.6199 44.288 27.7748 44.288 27.926C44.288 29.0142 44.2804 30.1025 44.2918 31.187C44.2956 31.5006 44.1965 31.6215 43.8727 31.614C43.2325 31.5989 42.5924 31.6026 41.9522 31.614C41.6665 31.614 41.5255 31.512 41.5445 31.2134C41.5598 31.0169 41.5179 30.8129 41.5598 30.6277C41.5865 30.5144 41.7198 30.3406 41.8113 30.3368C42.1313 30.3217 42.1694 30.1516 42.1809 29.8909C42.2685 27.6425 42.3714 25.3942 42.459 23.1459C42.4704 22.8285 42.5581 22.6698 42.9086 22.6962C43.2401 22.7227 43.5793 22.6962 43.9146 22.7038C44.147 22.7038 44.3413 22.6395 44.2727 22.3788C44.2384 22.2541 44.0594 22.1672 43.9336 22.0727C43.9069 22.05 43.846 22.0727 43.8003 22.0727C42.76 22.0576 42.8439 22.05 42.7372 21.0487C42.6305 20.0058 42.9429 19.2727 43.8765 18.8003C43.9412 18.7663 43.9908 18.7021 44.0555 18.6568C44.9243 18.0257 44.6957 17.8935 45.4768 18.8041C45.6559 19.012 45.7092 19.1782 45.5263 19.3936C45.5073 19.4163 45.5035 19.4503 45.4844 19.473C44.8405 20.2249 44.6881 20.9504 45.4082 21.7931C45.7854 22.2314 45.6292 22.5413 45.0729 22.7567C44.7757 22.87 44.7033 23.0438 44.7757 23.3121C45.1186 24.5742 45.4501 25.8363 45.8197 27.0909C46.3113 28.7686 46.9171 30.4237 47.3096 32.1241C47.5649 33.2275 47.5268 34.3989 47.603 35.5438C47.6068 35.6194 47.4544 35.7819 47.3934 35.7743C46.8485 35.7026 46.5246 36.0842 46.1588 36.3563C45.8464 36.5868 45.6711 36.5868 45.5225 36.1938C45.1491 35.2075 44.7338 34.2326 44.368 33.2426C44.1279 32.6002 44.509 32.0372 44.7414 31.4893C44.8367 31.2626 45.0577 31.4779 45.1453 31.682C45.5568 32.6569 45.976 33.628 46.3913 34.5992C46.4522 34.7428 46.5323 34.8788 46.6047 35.0186L46.7456 34.977L46.738 34.9733ZM44.0632 24.4911C44.0403 24.4646 43.9527 24.3513 43.865 24.2379C43.7926 24.3551 43.6745 24.4646 43.6593 24.5856C43.4688 26.3578 43.2935 28.13 43.1106 29.9022C43.0877 30.1101 43.0763 30.3065 43.3697 30.3254C43.6707 30.3443 43.7088 30.1592 43.724 29.9211C43.8307 28.1565 43.9412 26.3918 44.0632 24.4911ZM46.7533 35.1244C46.7304 35.0942 46.7037 35.064 46.6771 35.0337C46.658 35.0526 46.6161 35.0791 46.6199 35.0904C46.6351 35.132 46.6618 35.166 46.6847 35.2C46.7037 35.1773 46.7228 35.1546 46.7494 35.1206L46.7533 35.1244Z" fill="#F8F7F7"/>
<path d="M59.1179 38.4912C59.1179 38.7331 59.1179 38.9749 59.1179 39.2167C59.1179 39.9649 58.5769 40.3012 57.8834 39.9838C57.7996 39.946 57.7233 39.8894 57.6357 39.8705C56.6107 39.6513 56.3669 39.0127 56.3593 38.0113C56.3478 35.3209 56.2106 32.6342 56.1078 29.9475C56.0773 29.1729 56.6984 28.7686 57.0604 28.2169C57.087 28.1791 57.289 28.2131 57.3804 28.266C58.8931 29.1805 59.6933 30.5332 59.8686 32.2639C59.8876 32.4566 59.8914 32.6607 59.8686 32.8534C59.7771 33.6242 59.9676 34.3044 60.4439 34.9241C60.5697 35.0866 60.6344 35.336 60.6383 35.5476C60.6573 36.4998 60.6497 37.4521 60.6421 38.4043C60.6421 38.5215 60.6421 38.665 60.5811 38.7482C60.4973 38.8578 60.3487 38.9182 60.2305 38.9976C60.1658 38.8767 60.0553 38.7595 60.0477 38.6348C60.0248 38.2267 60.0781 37.8148 60.021 37.4143C59.9981 37.248 59.7962 37.0062 59.6438 36.9797C59.3923 36.9382 59.1256 37.0667 59.1179 37.403C59.1103 37.7657 59.1179 38.1285 59.1179 38.4912Z" fill="#FBFBFB"/>
<path d="M54.294 34.3498C54.2444 35.8877 54.1835 37.4294 54.1492 38.9674C54.1416 39.2583 54.0311 39.4057 53.772 39.5039C53.4176 39.64 53.0594 39.7798 52.7317 39.9649C52.4002 40.1501 52.1221 40.1199 51.7944 39.9574C51.5543 39.8365 51.4553 39.7004 51.4629 39.4359C51.4781 38.8464 51.4667 38.257 51.4667 37.6675C51.4667 37.2027 51.2648 36.9269 50.918 36.9571C50.457 36.9986 50.5027 37.3538 50.5027 37.6713C50.5027 37.9887 50.5217 38.3061 50.4989 38.6235C50.4913 38.7482 50.3922 38.8691 50.335 38.99C50.2017 38.8842 50.0493 38.7973 49.9502 38.6688C49.8969 38.6008 49.9311 38.4648 49.9311 38.359C49.9311 37.5428 49.9502 36.7266 49.9197 35.9104C49.9007 35.4229 49.9769 34.9846 50.3007 34.6029C50.6589 34.1835 50.7427 33.696 50.6932 33.167C50.5675 31.8142 50.9142 30.5786 51.7677 29.5206C52.1411 29.0596 52.6441 28.6968 53.0975 28.3C53.33 28.096 53.5281 28.1451 53.6958 28.4096C53.8901 28.7157 54.1301 28.9953 54.313 29.309C54.3969 29.4525 54.4388 29.6453 54.435 29.8153C54.4007 31.3268 54.3473 32.8345 54.3016 34.3422C54.3016 34.3422 54.2978 34.3422 54.294 34.3422V34.3498Z" fill="#FCFCFC"/>
<path d="M55.3076 27.4309C56.2259 27.6954 56.6183 27.1777 57.007 26.4485C57.8948 24.7631 58.8626 23.1194 59.8076 21.4643C59.9295 21.2527 60.0095 21.0902 59.7276 20.9504C59.6742 20.924 59.6056 20.8182 59.6209 20.769C59.7504 20.3647 59.7885 19.8584 60.059 19.5901C60.4401 19.216 61.0193 19.1442 61.5565 19.3709C62.2881 19.6808 62.532 20.3005 62.1852 20.9995C61.3393 22.7075 60.4896 24.4117 59.6247 26.1084C59.5294 26.2935 59.4989 26.6525 59.1369 26.49C58.7597 26.3238 58.5692 25.8514 58.7216 25.5491C59.5294 23.9583 60.3372 22.3674 61.145 20.7766C61.1869 20.6972 61.2707 20.6028 61.2555 20.5348C61.2212 20.4063 61.1259 20.2967 61.0574 20.1758C60.9697 20.2438 60.8325 20.2929 60.8021 20.3798C60.0209 22.6093 58.554 24.476 57.4871 26.5543C57.1289 27.2533 56.706 27.9184 56.3287 28.6099C56.1916 28.8631 56.0392 28.9878 55.7267 28.9878C54.4426 28.9878 54.4541 28.9953 53.8253 27.8768C52.5908 25.6927 51.3334 23.5162 50.095 21.3321C49.9579 21.0865 49.916 20.7917 49.794 20.5348C49.7292 20.3987 49.5845 20.2967 49.474 20.1833C49.4358 20.3534 49.3215 20.5574 49.3787 20.6859C49.6645 21.3207 49.9922 21.9329 50.3084 22.5526C50.8152 23.5502 51.322 24.5478 51.8287 25.5453C51.9812 25.8476 51.6725 26.49 51.3334 26.5089C51.2305 26.5165 51.0667 26.3767 51.0133 26.2633C50.1941 24.646 49.3863 23.0212 48.5747 21.3963C48.5214 21.2867 48.4756 21.1734 48.4147 21.0713C48.1899 20.6972 48.0032 20.3345 48.3423 19.915C48.6852 19.4918 49.0815 19.2122 49.6645 19.2613C50.4875 19.3331 51.0514 19.9755 50.96 20.7539C50.96 20.7842 50.96 20.8295 50.9409 20.8408C50.358 21.1998 50.8152 21.5437 50.9867 21.8498C51.924 23.5426 52.8994 25.2166 53.8253 26.9132C54.0463 27.3213 54.3055 27.4952 54.7551 27.4271C54.9342 27.4007 55.1209 27.4234 55.3038 27.4234L55.3076 27.4309Z" fill="#F4F3F3"/>
<path d="M65.0123 39.4926C65.3477 39.4926 65.683 39.5077 66.0183 39.4888C66.3688 39.4661 66.4831 39.606 66.4336 39.9423C66.224 41.329 66.0564 42.7196 65.8163 44.1026C65.641 45.0964 65.42 46.0865 65.1419 47.0576C64.9476 47.734 64.6275 48.3764 64.3494 49.0301C63.9378 50.0012 63.6711 51.0026 63.6521 52.0568C63.6444 52.4347 63.5416 52.5896 63.1339 52.4687C62.7261 52.344 62.307 52.2684 61.8917 52.1702C61.6669 52.1135 61.5488 52.0115 61.6554 51.7508C63.1605 47.9456 63.5339 43.9628 63.4958 39.9234C63.4958 39.5946 63.614 39.4926 63.915 39.5001C64.2808 39.5115 64.6466 39.5001 65.0123 39.5001V39.4926ZM65.3515 42.5231C65.3057 42.4664 65.2295 42.2964 65.1609 42.3002C65.039 42.304 64.898 42.3909 64.8066 42.4853C64.7418 42.5496 64.7456 42.6818 64.7228 42.7839C64.3303 44.5183 63.9416 46.2527 63.553 47.9834C63.4463 48.4557 63.3244 48.9205 63.2482 49.3966C63.2291 49.5175 63.3472 49.6611 63.4044 49.7972C63.5111 49.6989 63.6292 49.6082 63.7206 49.4986C63.7664 49.4457 63.7626 49.355 63.7816 49.2833C64.1017 47.9191 64.4217 46.555 64.738 45.1909C64.9399 44.3256 65.1381 43.4602 65.3553 42.5193L65.3515 42.5231Z" fill="#F6F6F6"/>
<path d="M47.0544 41.6011C47.1725 44.6732 47.5193 47.7075 48.4985 50.6436C48.6243 51.0139 48.7538 51.3842 48.9062 51.747C49.0091 51.9813 48.9253 52.0946 48.7119 52.1475C48.2394 52.2684 47.7669 52.378 47.2945 52.4914C46.9287 52.5783 46.9363 52.3214 46.9249 52.0909C46.8753 51.0404 46.6962 50.0088 46.2161 49.0717C45.1492 46.9707 44.833 44.6846 44.471 42.406C44.3415 41.586 44.2614 40.7623 44.1281 39.9423C44.0747 39.6097 44.189 39.4964 44.5053 39.4964C45.2216 39.5002 45.938 39.5077 46.6505 39.4964C46.9782 39.4888 47.0658 39.6286 47.0582 39.9347C47.0392 40.494 47.0544 41.0532 47.0544 41.6087V41.6011ZM47.5269 49.6989C47.4735 49.646 47.4164 49.5893 47.363 49.5364C47.3516 49.4911 47.3364 49.4495 47.3288 49.4042C46.8182 47.137 46.3076 44.8735 45.8008 42.6063C45.7513 42.3871 45.656 42.1982 45.4122 42.3078C45.3207 42.3493 45.2521 42.5949 45.2826 42.7272C45.6103 44.216 45.9532 45.6973 46.2962 47.1823C46.4752 47.9607 46.6467 48.7429 46.8525 49.5138C46.8829 49.6309 47.0506 49.748 47.1801 49.7896C47.2754 49.8198 47.4088 49.7329 47.5269 49.6989Z" fill="#F7F6F6"/>
<path d="M57.4337 14.3339C57.5708 14.5757 57.6128 14.7987 57.5213 15.0934C57.4642 15.2861 57.5823 15.5997 57.7271 15.7698C57.9786 16.0645 58.3215 16.2837 58.6035 16.5558C58.9426 16.8807 58.9235 17.1377 58.5463 17.4173C58.3405 17.5685 58.0929 17.6591 57.8757 17.799C57.3537 18.1315 56.8164 18.4413 56.3287 18.823C55.6657 19.3445 55.3456 20.0397 55.4866 20.8975C55.5247 21.1356 55.4866 21.3207 55.2237 21.2754C55.1246 21.2603 54.9798 21.026 54.9951 20.9088C55.1018 20.07 54.8312 19.3785 54.1835 18.8608C53.7148 18.4867 53.1928 18.1693 52.6898 17.8405C52.4879 17.7083 52.2554 17.6251 52.0497 17.5004C51.5353 17.1793 51.5124 16.8694 51.9697 16.4651C52.2211 16.2459 52.5184 16.0645 52.7203 15.8076C52.8651 15.6186 52.8918 15.339 52.968 15.0972C52.7889 14.4548 53.0327 14.1412 53.7148 14.1412C54.7626 14.1412 55.8105 14.1298 56.8545 14.1487C57.045 14.1487 57.2355 14.2696 57.4299 14.3377L57.4337 14.3339ZM56.2601 16.261C56.2601 16.261 56.2601 16.261 56.2639 16.261C56.2791 15.9738 56.3211 15.6867 56.2944 15.4033C56.283 15.2861 56.1344 15.1803 56.0505 15.0707C55.9438 15.1614 55.7457 15.2521 55.7381 15.3503C55.7076 15.9512 55.7114 16.5595 55.7343 17.1604C55.7343 17.2586 55.8753 17.3493 55.9515 17.4438C56.0315 17.3493 56.161 17.2662 56.1801 17.1641C56.2296 16.8694 56.2334 16.5633 56.2563 16.261H56.2601ZM54.755 16.2572C54.755 15.9549 54.7817 15.6526 54.7398 15.3541C54.7245 15.2483 54.5531 15.1123 54.4349 15.0896C54.3626 15.0745 54.172 15.2559 54.1758 15.3428C54.1987 15.9587 54.2482 16.5747 54.313 17.1906C54.3206 17.2775 54.454 17.3531 54.5264 17.4324C54.6026 17.3417 54.736 17.2548 54.7436 17.1566C54.7741 16.8581 54.755 16.5558 54.7512 16.2535L54.755 16.2572Z" fill="#F8F7F7"/>
<path d="M45.6941 23.2479C45.7817 23.0778 45.8694 22.8171 46.0294 22.6093C46.4371 22.084 46.8829 21.5852 47.3097 21.0713C47.5154 20.8257 47.6831 20.8484 47.8279 21.128C48.2661 21.9707 48.7157 22.8095 49.1348 23.6673C49.1882 23.7807 49.131 24.0338 49.0319 24.1208C48.6471 24.4608 48.548 24.8614 48.5557 25.364C48.5823 27.7823 48.5709 30.2007 48.5557 32.6153C48.5557 32.774 48.4261 32.9365 48.3575 33.0952C48.2432 32.963 48.0679 32.8496 48.0298 32.6984C47.2716 29.7322 46.5324 26.7621 45.7894 23.792C45.7512 23.6446 45.7398 23.4935 45.6979 23.2479H45.6941Z" fill="#F9F8F8"/>
<path d="M62.0136 28.8215C62.0136 27.6576 61.9945 26.4938 62.025 25.3337C62.0365 24.8614 61.9526 24.4722 61.5716 24.1774C61.3392 23.9961 61.3316 23.8071 61.4725 23.5502C61.8993 22.768 62.3032 21.9744 62.7071 21.1771C62.8709 20.8559 63.0462 20.8106 63.2786 21.1016C63.7435 21.6759 64.2312 22.239 64.6618 22.8398C64.7913 23.0212 64.8561 23.3348 64.8028 23.554C64.2579 25.9043 63.6825 28.2471 63.111 30.5937C62.9395 31.2965 62.7566 31.9956 62.5509 32.6871C62.5051 32.842 62.3413 32.963 62.2308 33.099C62.1584 32.9441 62.0288 32.7891 62.025 32.6342C62.0098 31.3646 62.0174 30.0987 62.0136 28.829V28.8215Z" fill="#FBFBFB"/>
<path d="M64.9362 26.6412L64.9476 26.6109C65.1153 26.6109 65.2906 26.6449 65.443 26.5958C65.5459 26.5618 65.6564 26.422 65.6754 26.3162C65.7135 26.1046 65.6983 25.8816 65.6868 25.6625C65.664 25.2506 65.6259 24.8425 65.5954 24.4306C65.6068 24.3702 65.6183 24.3097 65.6297 24.2455C65.6487 24.2077 65.664 24.1699 65.683 24.1321C65.7021 24.049 65.7249 23.9696 65.744 23.8865C65.7592 23.7958 65.7745 23.7051 65.7897 23.6144C65.7973 23.4935 65.805 23.3726 65.8126 23.2517C66.0222 23.1647 66.0298 23.0741 65.8202 22.9758C65.7554 22.9154 65.7021 22.8247 65.6259 22.802C64.8295 22.545 64.8486 22.1521 65.302 21.521C65.3325 21.4757 65.363 21.4265 65.3973 21.3812C65.4658 21.2792 65.5344 21.1771 65.5992 21.0751C65.6259 21.0411 65.6564 21.0033 65.683 20.9693C65.6716 20.7804 65.7059 20.5763 65.6335 20.4101C65.4963 20.0889 65.2982 19.7904 65.1267 19.4805C65.1001 19.4389 65.0734 19.3936 65.0467 19.352C65.0162 19.2916 64.9857 19.2349 64.9553 19.1744C64.9553 19.1329 64.9476 19.0913 64.9476 19.0497L65.5078 18.3507C65.5992 18.2902 65.6907 18.2297 65.7821 18.1693C65.8736 18.2222 65.965 18.2789 66.0564 18.3318C66.0222 18.6227 66.2089 18.6378 66.4222 18.6227C66.5175 18.6983 66.6166 18.7701 66.7118 18.8457C66.6509 19.2122 66.8185 19.284 67.1348 19.1706C67.1729 19.2009 67.2072 19.2273 67.2453 19.2576C67.2796 19.4011 67.3177 19.5447 67.352 19.6883C67.4472 19.6468 67.5425 19.6052 67.6339 19.5636C67.6873 19.6921 67.7825 19.8168 67.7863 19.9491C67.8016 20.5196 67.7787 21.0902 67.7978 21.6608C67.8092 21.9858 67.6758 22.0878 67.371 22.0689C67.131 22.0538 66.8757 22.0274 66.6471 22.0803C66.5023 22.1143 66.3841 22.2843 66.2584 22.3939C66.3918 22.4959 66.5175 22.6735 66.6623 22.6924C67.0662 22.7378 67.4777 22.7189 67.8854 22.7264C67.9273 22.7491 67.973 22.7718 68.015 22.7944C68.0264 22.8889 68.0416 22.9834 68.0531 23.0778C68.0759 23.4406 68.095 23.8033 68.1178 24.1623C68.1293 24.4949 68.1369 24.8274 68.1483 25.1637C68.1712 25.6171 68.1979 26.0706 68.2207 26.5202C68.2283 26.7923 68.2321 27.0644 68.2398 27.3402C68.2626 27.7332 68.2855 28.1262 68.3084 28.5192C68.316 28.7006 68.3198 28.8782 68.3274 29.0595C68.2512 29.0784 68.175 29.0973 68.1026 29.1162C68.1026 29.1389 68.1026 29.1616 68.1026 29.1842C68.1788 29.2031 68.255 29.222 68.3312 29.2409C68.3312 29.3316 68.3312 29.4223 68.335 29.5168C68.3084 29.6679 68.2779 29.8153 68.2512 29.9664C67.9883 29.9362 67.7216 29.906 67.4586 29.8757C67.4129 29.3656 67.3634 28.8517 67.3177 28.3416L67.2872 28.1527C67.1691 26.9813 67.0586 25.8098 66.9252 24.6422C66.91 24.5024 66.7537 24.3777 66.6661 24.2455C66.6166 24.3853 66.5213 24.5289 66.5213 24.6687C66.5289 25.2846 66.567 25.9043 66.5937 26.5202C66.3803 26.5769 66.1631 26.6261 65.9498 26.6903C65.6221 26.7885 65.5954 26.951 65.8583 27.2344C65.8431 27.2684 65.8278 27.3024 65.8088 27.3365C65.4163 27.5216 65.1077 27.2647 64.7686 27.1513C64.8028 27.0304 64.8371 26.9095 64.8676 26.7885C64.8867 26.7394 64.9095 26.6865 64.9286 26.6374L64.9362 26.6412Z" fill="white"/>
<path d="M61.9337 11.3752C62.4786 12.146 62.5167 14.1147 61.9794 14.7722C61.0421 15.921 58.9997 15.9701 58.0243 14.8402C57.849 14.6362 57.7119 14.4019 57.5556 14.179C57.3232 13.4723 57.4604 12.7846 57.6547 12.1007C57.7728 11.8626 57.8947 11.6208 58.0129 11.3827C58.3215 10.6761 58.8778 10.4569 59.6132 10.5741C59.7161 10.5892 59.8228 10.5627 59.9257 10.5552C60.2953 10.5892 60.6877 10.5627 61.0345 10.6685C61.324 10.7554 61.5641 10.9973 61.8232 11.1711C61.4041 11.6321 60.9849 12.0893 60.562 12.5503C59.9104 12.8753 59.2588 13.2041 58.5273 13.5706C58.6073 13.7671 58.7063 14.0921 58.8626 14.3906C59.0721 14.7911 59.3846 15.1539 59.8647 15.1425C60.3562 15.1312 60.5887 14.7118 60.7639 14.2961C60.7792 14.2545 60.7982 14.2168 60.8135 14.1752C60.8478 14.058 60.882 13.9371 60.9163 13.82C60.9278 13.7255 60.943 13.6273 60.9544 13.5328C60.9544 13.3892 60.9544 13.2456 60.9506 13.102C60.7944 12.6108 61.0192 12.2707 61.3812 11.9609C61.5831 11.7908 61.747 11.5679 61.9261 11.3714L61.9337 11.3752Z" fill="#FBF8F8"/>
<path d="M52.5184 14.8176C51.5963 15.7358 50.5294 15.9021 49.3482 15.3919C48.7043 15.1161 48.2813 14.6589 48.1861 13.9447C48.0641 13.0491 48.0832 12.1762 48.5557 11.3676C48.8453 11.6888 49.1501 11.9949 49.4168 12.335C49.5197 12.4634 49.5235 12.6675 49.573 12.8375C49.5654 12.8942 49.5578 12.9509 49.554 13.0076C49.5692 13.3363 49.5883 13.6651 49.6035 13.9938C49.6645 14.1487 49.7254 14.2961 49.7864 14.4435V14.451C49.8207 14.5039 49.8512 14.5568 49.8817 14.6135C49.8817 14.6362 49.8931 14.6551 49.916 14.6626C49.9617 14.7155 50.0074 14.7684 50.0531 14.8213C50.4608 15.2446 50.7618 15.2748 51.1848 14.9083C51.6382 14.5191 51.8745 14.0127 51.943 13.5555C51.261 13.2192 50.6323 12.9131 50.0074 12.6032C49.5578 12.1271 49.112 11.6548 48.6624 11.1787C48.9443 10.9935 49.2225 10.8083 49.5044 10.6232C49.6569 10.6005 49.8131 10.5778 49.9655 10.5552C50.1446 10.5552 50.3237 10.5552 50.5027 10.5552C50.9905 10.5892 51.4782 10.6194 51.9659 10.6534C52.0116 10.7101 52.0612 10.7668 52.1069 10.8272C52.2669 11.0993 52.4384 11.3676 52.5794 11.6472C53.1204 12.7128 53.33 13.7784 52.5146 14.8176H52.5184Z" fill="#FBF8F8"/>
<path d="M64.395 57.2601C63.8311 57.4453 63.4615 57.0939 63.1605 56.5497C62.8976 56.0736 62.6156 55.5975 62.2613 55.1856C61.6973 54.5319 61.6097 53.7951 61.6707 52.9902C61.6897 52.7181 61.7773 52.5972 62.0593 52.6426C62.5089 52.7143 62.97 52.7521 63.412 52.8579C63.5568 52.8919 63.7092 53.062 63.774 53.2094C64.3188 54.4072 64.837 55.6164 65.3743 56.8143C65.5115 57.1166 65.4657 57.2753 65.0961 57.2564C64.898 57.245 64.6999 57.2564 64.3912 57.2564L64.395 57.2601Z" fill="#F9F8F8"/>
<path d="M46.1704 57.2601C44.894 57.2639 44.974 57.3357 45.4198 56.3155C45.8542 55.3179 46.3076 54.3278 46.7305 53.3265C46.8639 53.0129 47.0278 52.8353 47.3897 52.8164C47.767 52.7975 48.1442 52.7106 48.5176 52.6463C48.7729 52.601 48.8758 52.6917 48.8872 52.9524C48.9177 53.7421 48.9177 54.5017 48.3271 55.1554C47.9651 55.5559 47.6869 56.0396 47.4278 56.5157C47.123 57.0674 46.7687 57.4604 46.1742 57.2564L46.1704 57.2601Z" fill="#FAF9FA"/>
<path d="M50.5218 10.0148C51.1429 9.67094 51.764 9.31952 52.3888 8.98699C52.4879 8.93409 52.6251 8.93787 52.7432 8.93787C54.4007 8.93787 56.0582 8.93409 57.7119 8.93787C57.8871 8.93787 58.0777 8.97565 58.2339 9.05501C58.7102 9.28551 59.1827 9.53113 59.6361 9.80319C59.7656 9.87877 59.8304 10.0601 59.9257 10.1962C59.236 10.2075 58.5311 10.302 57.8529 10.2075C56.123 9.96946 54.4045 9.8901 52.6822 10.2377C52.6479 10.2264 52.6213 10.2377 52.606 10.268C51.9087 10.2415 51.2115 10.2113 50.5142 10.1848V10.1886C50.5142 10.1319 50.5142 10.0715 50.5142 10.0148H50.5218Z" fill="#F6F6F6"/>
<path d="M51.3716 16.1515C51.0591 17.0886 51.1429 17.338 51.905 17.8216C52.1717 17.9917 52.4537 18.1466 52.7433 18.2751C53.6387 18.6643 54.256 19.3256 54.6751 20.1833C54.7285 20.2967 54.6904 20.4516 54.6942 20.5877C54.5151 20.5574 54.2941 20.5839 54.1645 20.4856C54.0007 20.3685 53.9245 20.1418 53.7911 19.9793C53.3453 19.4465 52.7928 19.0989 52.0765 19.0535C51.4097 19.0119 50.739 18.9817 50.0722 18.9137C49.8893 18.8948 49.6645 18.7852 49.5578 18.6454C49.2187 18.1995 48.9253 17.7234 48.6205 17.2511C48.4376 16.9677 48.571 16.7031 48.8949 16.7598C49.4931 16.8619 49.9503 16.6125 50.438 16.3442C50.6895 16.2081 51.0172 16.2157 51.3754 16.1477L51.3716 16.1515Z" fill="#F6F6F6"/>
<path d="M59.1826 16.1439C59.5027 16.2232 59.8571 16.2384 60.1352 16.3933C60.5848 16.6427 61.0078 16.8505 61.5489 16.7636C61.9108 16.7069 62.0556 16.9601 61.8651 17.2624C61.5603 17.7461 61.2478 18.2335 60.9087 18.6945C60.8211 18.8154 60.6191 18.9061 60.4629 18.9212C59.8113 18.9817 59.1598 19.0119 58.5082 19.0459C57.5937 19.0988 56.9536 19.5825 56.4583 20.3043C56.4087 20.3798 56.3744 20.5008 56.3058 20.5234C56.1458 20.5725 55.9705 20.5725 55.7991 20.5914C55.7991 20.4554 55.761 20.3005 55.8143 20.1909C56.2258 19.3558 56.8164 18.6945 57.7004 18.3091C58.0853 18.1428 58.4549 17.9199 58.7978 17.6743C59.4036 17.2397 59.457 16.9639 59.1369 16.3102L59.1865 16.1477L59.1826 16.1439Z" fill="#F7F6F6"/>
<path d="M69.0134 34.0815C69.0134 34.6407 68.9981 35.1962 69.0172 35.7555C69.0286 36.0577 68.9448 36.1862 68.6171 36.1938C67.4816 36.2278 67.4854 36.2353 67.2339 35.1168C67.032 34.2213 66.8262 33.3257 66.6014 32.4377C66.5176 32.0977 66.6014 31.9578 66.9634 31.9692C67.4778 31.9843 67.996 31.9881 68.5142 31.9692C68.88 31.9541 69.0438 32.0636 69.021 32.4566C68.9905 32.997 69.0134 33.5411 69.0134 34.0853V34.0815Z" fill="#FAF9FA"/>
<path d="M41.5483 34.089C41.5483 33.5147 41.5598 32.9441 41.5445 32.3697C41.5369 32.075 41.6588 31.9616 41.9484 31.9692C42.5123 31.9767 43.0725 31.9767 43.6364 31.9692C43.9336 31.9692 44.0517 32.075 43.9755 32.3848C43.6974 33.5562 43.4344 34.7314 43.1601 35.9028C43.1411 35.9859 43.0877 36.1295 43.0458 36.1295C42.5809 36.1446 42.1123 36.1446 41.6474 36.1182C41.6093 36.1182 41.556 35.8839 41.5521 35.7592C41.5407 35.2 41.5483 34.6445 41.5483 34.0852V34.089Z" fill="#F8F8F9"/>
<path d="M52.686 10.2378C54.4082 9.89389 56.1267 9.96947 57.8566 10.2075C58.5348 10.302 59.2359 10.2075 59.9294 10.1962C59.9294 10.3171 59.9294 10.438 59.9294 10.5589C59.8227 10.5665 59.716 10.593 59.6169 10.5778C58.8816 10.4607 58.3252 10.6799 58.0166 11.3865C57.7385 11.224 57.6965 11.481 57.6127 11.6245C57.5213 11.787 57.3612 11.9722 57.6584 12.1044C57.4641 12.7884 57.3269 13.4761 57.5594 14.1827C57.5175 14.2319 57.4755 14.281 57.4336 14.3339C57.2431 14.2696 57.0526 14.1487 56.8583 14.1449C55.8104 14.1261 54.7664 14.1374 53.7186 14.1374C53.0365 14.1374 52.7926 14.451 52.9717 15.0934C52.8193 15.0027 52.6669 14.9083 52.5183 14.8176C53.3337 13.7784 53.1241 12.7128 52.5831 11.6472C52.4421 11.3676 52.2706 11.0993 52.1106 10.8272C52.2401 10.8272 52.3735 10.8272 52.5031 10.8272C53.1775 11.5868 53.5166 12.4559 53.4175 13.4799C53.3909 13.7671 53.6004 13.7822 53.81 13.7822C54.7664 13.7822 55.7266 13.7822 56.683 13.7822C56.9992 13.7822 57.1021 13.6613 57.0793 13.3401C57.0183 12.5314 57.2126 11.787 57.7461 11.1484C58.0966 10.729 58.07 10.6647 57.506 10.5476C55.9667 10.2302 54.4273 10.2907 52.8917 10.5438L52.6936 10.234L52.686 10.2378Z" fill="#342F2E"/>
<path d="M63.7588 35.1433C63.8693 35.0261 64.0217 34.9241 64.0865 34.7843C64.5361 33.7792 64.9591 32.7627 65.4087 31.7538C65.4658 31.6215 65.6068 31.5233 65.7059 31.4061C65.7973 31.527 65.9116 31.6404 65.9764 31.7727C66.3346 32.5209 66.3232 33.2426 65.9383 34.0021C65.5916 34.6861 65.3591 35.4267 65.0696 36.1371C64.8867 36.5943 64.8143 36.6094 64.4218 36.3449C64.0408 36.088 63.7283 35.6988 63.1834 35.763C63.1225 35.7705 62.9739 35.5552 62.9739 35.4456C62.9739 35.1017 63.0234 34.7579 63.0577 34.414C63.1072 34.6898 63.1606 34.9657 63.233 35.3511C63.4006 35.2831 63.5835 35.2113 63.7664 35.1395L63.7588 35.1433Z" fill="#F5F5F5"/>
<path d="M63.7588 35.1433C63.5759 35.2151 63.393 35.2869 63.2253 35.3549C63.1529 34.9695 63.1034 34.6936 63.05 34.4178C63.0729 34.1457 63.092 33.8736 63.1148 33.5978L63.1377 32.963C63.1491 32.7816 63.1644 32.6002 63.1758 32.4188C63.2063 32.3017 63.2329 32.1846 63.2634 32.0674L63.3434 31.784C63.3663 31.7235 63.3892 31.6631 63.412 31.6026C63.4768 31.391 63.5416 31.1794 63.6064 30.964C63.633 30.8733 63.6635 30.7826 63.6902 30.6957C63.7283 30.5484 63.7702 30.3972 63.8083 30.2499C63.8312 30.1856 63.854 30.1252 63.8807 30.0609C63.9188 29.94 63.9531 29.8153 63.9912 29.6944C64.0598 29.6415 64.1665 29.5999 64.1855 29.5319C64.2503 29.3203 64.2808 29.0973 64.3265 28.8782C64.4256 28.9537 64.5285 29.0255 64.6199 29.1087C64.8028 29.2712 64.9781 29.4412 65.1572 29.6037C65.1305 29.6906 65.1038 29.7813 65.0771 29.8682C65.0619 29.9287 65.0505 29.9891 65.0352 30.0496C65.0162 30.11 64.9971 30.1705 64.9743 30.231C64.7495 30.692 64.4751 31.1378 64.5894 31.6858C64.5475 31.8671 64.5056 32.0485 64.4637 32.2299C64.4103 32.4113 64.3608 32.5927 64.3075 32.774C64.2998 32.8345 64.2922 32.895 64.2808 32.9554C64.0293 33.2174 63.9721 33.4278 64.1093 33.5865C64.0979 33.6469 64.0865 33.7074 64.075 33.7678C63.7854 33.8888 63.8083 34.0852 63.934 34.312C63.9226 34.3724 63.9112 34.4329 63.8959 34.4933C63.8807 34.5538 63.8616 34.6143 63.8464 34.6747C63.8159 34.8297 63.7816 34.9808 63.7511 35.1357L63.7588 35.1433Z" fill="white"/>
<path d="M61.3963 32.8043C61.2896 32.6456 61.2058 32.5284 61.1334 32.4037C60.4895 31.3419 59.8531 30.2801 59.2016 29.222C59.072 29.0142 59.0492 28.8631 59.2054 28.6552C59.434 28.3529 59.6093 28.0166 59.8303 27.7068C60.0056 27.4612 60.2075 27.4801 60.2837 27.771C60.7028 29.3921 61.1029 31.0169 61.5068 32.6418C61.5106 32.6607 61.4763 32.6871 61.3963 32.8005V32.8043Z" fill="#F4F3F3"/>
<path d="M49.0625 32.7098C49.0816 32.5889 49.093 32.4642 49.1235 32.3432C49.4931 30.8695 49.8627 29.3921 50.2437 27.9221C50.278 27.7899 50.3885 27.6803 50.4647 27.5594C50.579 27.6425 50.7048 27.7143 50.8038 27.8163C51.4973 28.5305 51.5468 29.2145 50.8915 30.042C50.3047 30.7826 49.8893 31.6555 49.394 32.4679C49.3292 32.5737 49.2492 32.6644 49.173 32.7627C49.1349 32.7476 49.1006 32.7287 49.0625 32.7136V32.7098Z" fill="#F3F2F3"/>
<path d="M55.338 22.4808C55.6085 22.5148 55.9552 22.5526 56.2982 22.6055C56.7554 22.6773 57.0183 23.2063 56.7783 23.5842C56.7287 23.6598 56.5687 23.7278 56.4773 23.7089C55.6466 23.5426 54.8198 23.5464 53.9891 23.7089C53.73 23.7618 53.6386 23.6409 53.6271 23.3915C53.5928 22.7189 53.5967 22.7 54.2635 22.5828C54.3968 22.5602 54.534 22.5375 54.6674 22.5224C54.8655 22.5035 55.0598 22.4959 55.3342 22.477L55.338 22.4808Z" fill="#F4F3F3"/>
<path d="M55.2733 23.8033C55.6658 23.86 56.0544 23.9318 56.4469 23.9696C56.7365 23.9998 56.8279 24.1321 56.8241 24.4117C56.8241 25.0957 56.8051 25.0843 56.1382 25.0239C55.5248 24.971 54.8999 25.0201 54.2788 25.0239C54.0349 25.0239 53.6768 25.243 53.6425 24.7858C53.5929 24.1397 53.6006 23.9847 54.0921 23.9545C54.4846 23.9318 54.877 23.8562 55.2733 23.8033Z" fill="#F2F1F1"/>
<path d="M49.1349 36.8588C48.6243 37.1196 48.1137 37.3841 47.5955 37.6372C47.4012 37.7317 46.4296 37.2669 46.4067 37.0629C46.3991 36.976 46.4905 36.8361 46.5782 36.7908C47.104 36.5263 47.6412 36.2807 48.1709 36.0275C48.2776 35.9859 48.3881 35.9444 48.4948 35.9028C48.7996 35.8272 49.1044 35.7479 49.4054 35.6723C49.4588 35.7932 49.5121 35.9141 49.5655 36.0351C49.5655 36.2202 49.5655 36.4016 49.5655 36.5868C49.4207 36.6774 49.2759 36.7681 49.1311 36.8588H49.1349Z" fill="#F9F8F8"/>
<path d="M61.0192 36.5868C61.0115 36.3638 60.9734 36.1371 61.0115 35.9217C61.0268 35.8272 61.1982 35.763 61.3011 35.6837C61.3316 35.6874 61.3621 35.6912 61.3926 35.6988C61.6059 35.763 61.8193 35.8272 62.0327 35.8915C62.1432 35.9368 62.2537 35.986 62.3642 36.0313C62.9891 36.3147 63.614 36.5943 64.2503 36.8853C63.7855 37.5995 63.191 37.7695 62.57 37.4521C62.208 37.2669 61.8498 37.0742 61.4878 36.8853C61.3316 36.787 61.1754 36.6926 61.0192 36.5943V36.5868Z" fill="#F8F7F7"/>
<path d="M62.8215 58.6205C62.8367 57.4831 62.6729 57.6758 63.8122 57.6267C64.2923 57.604 64.4714 57.7627 64.4714 58.2237C64.4714 58.5713 64.5476 58.919 64.5285 59.2629C64.5247 59.38 64.3494 59.5652 64.2351 59.584C63.9379 59.6294 63.6255 59.5765 63.3244 59.6029C62.9129 59.6407 62.7681 59.4669 62.8177 59.0777C62.8367 58.9303 62.8177 58.7754 62.8177 58.6243L62.8215 58.6205Z" fill="#F6F6F6"/>
<path d="M47.7327 58.6432C47.7098 59.6974 47.9384 59.5916 46.761 59.5992C46.6391 59.5992 46.5172 59.5954 46.3952 59.5992C46.1018 59.6143 45.9761 59.4896 46.0104 59.1911C46.0561 58.7716 45.999 58.322 46.1361 57.9365C46.3571 57.3055 46.9477 57.7552 47.3592 57.6456C47.626 57.5738 47.7441 57.7438 47.7327 58.0121C47.7212 58.2237 47.7327 58.4353 47.7327 58.6469V58.6432Z" fill="#F2F1F1"/>
<path d="M69.0132 38.2872C69.0132 38.6802 69.0284 39.0731 69.0017 39.4624C68.9941 39.5757 68.857 39.7722 68.7884 39.7684C68.6398 39.7571 68.3959 39.674 68.3654 39.5719C68.1254 38.7633 67.9272 37.9433 67.7177 37.1271C67.7062 37.0855 67.71 36.9986 67.7177 36.9986C68.0568 36.942 68.3959 36.8664 68.735 36.855C68.8227 36.855 68.9865 37.0478 68.9979 37.1611C69.0322 37.5352 69.0094 37.9131 69.0094 38.291L69.0132 38.2872Z" fill="#F6F6F6"/>
<path d="M59.7504 27.3025C59.4798 27.7408 59.2703 28.1262 59.0074 28.4739C58.9388 28.5646 58.6682 28.6137 58.5768 28.5532C58.2339 28.3341 57.9176 28.0695 57.6166 27.7937C57.5366 27.7181 57.5518 27.5405 57.5251 27.4083C57.5251 27.3969 57.5328 27.378 57.5404 27.3667C58.1615 26.0782 57.9062 26.2293 59.015 26.8604C59.2474 26.9926 59.476 27.1362 59.7466 27.3025H59.7504Z" fill="#F6F6F6"/>
<path d="M50.8076 27.2949C51.3296 26.9888 51.8021 26.6941 52.2936 26.4371C52.366 26.3993 52.5794 26.4976 52.6366 26.5883C52.7966 26.8414 52.9338 27.1173 53.0252 27.4007C53.0633 27.5178 53.0062 27.7257 52.9147 27.8163C52.6404 28.0771 52.3279 28.2925 52.0384 28.5343C51.825 28.7119 51.6611 28.6854 51.5201 28.4474C51.303 28.0884 51.0781 27.7294 50.8114 27.2949H50.8076Z" fill="#F7F6F6"/>
<path d="M41.5483 38.3099C41.5483 37.932 41.556 37.5541 41.5483 37.1762C41.5407 36.9306 41.6283 36.8362 41.8913 36.8248C42.9505 36.7795 42.9467 36.7681 42.6762 37.796C42.5314 38.3514 42.379 38.9031 42.2532 39.4624C42.1961 39.7193 42.0475 39.8591 41.8112 39.7722C41.6931 39.7307 41.575 39.5304 41.5636 39.3944C41.5293 39.0354 41.5521 38.6726 41.5521 38.3099H41.5483Z" fill="#F4F3F3"/>
<path d="M65.8622 27.2382C65.6031 26.9548 65.626 26.7923 65.9537 26.6941C66.167 26.6299 66.3842 26.5807 66.5976 26.524C66.6281 26.9473 66.6586 27.3705 66.689 27.7937C66.6776 27.8013 66.6548 27.8164 66.6586 27.8201C66.6662 27.8428 66.6814 27.8617 66.6929 27.8844C66.7386 28.5457 66.7805 29.2032 66.83 29.8644C66.8453 30.0836 66.83 30.3368 67.173 30.333C67.5197 30.333 67.4282 30.0685 67.4587 29.8795C67.7216 29.9098 67.9884 29.94 68.2513 29.9702C68.2513 30.0307 68.2513 30.0912 68.2513 30.1516C68.1332 30.3406 68.0608 30.624 67.8893 30.7033C67.4283 30.9149 66.9634 30.93 66.6281 30.4237C66.5824 30.3519 66.4109 30.3632 66.2966 30.333C66.2852 29.4034 66.2775 28.4739 66.2699 27.5443C66.2699 27.2609 66.2356 27.0304 65.8622 27.242V27.2382Z" fill="#FCFCFC"/>
<path d="M61.0458 7.97053C60.8972 8.56757 60.7981 9.03991 60.6457 9.49335C60.6152 9.58782 60.3485 9.70874 60.2571 9.67095C59.716 9.4329 59.194 9.15705 58.672 8.87742C58.5919 8.83586 58.4929 8.72628 58.4967 8.65448C58.5005 8.57891 58.6072 8.47688 58.691 8.45043C59.3502 8.22748 60.0132 8.00454 60.68 7.81183C60.7867 7.7816 60.9391 7.92141 61.042 7.96675L61.0458 7.97053Z" fill="#F4F3F3"/>
<path d="M49.4243 7.94407C49.5462 7.89495 49.6987 7.77403 49.8053 7.80426C50.4722 7.99697 51.1313 8.21991 51.7905 8.44664C51.8782 8.47687 51.9849 8.57511 51.9925 8.65069C52.0001 8.72248 51.901 8.83207 51.821 8.87363C51.299 9.14948 50.777 9.42155 50.2397 9.65961C50.1483 9.70117 49.893 9.61048 49.8663 9.53113C49.7063 9.04745 49.5882 8.54866 49.4243 7.94029V7.94407Z" fill="#F4F3F3"/>
<path d="M65.0239 39.0656C64.7953 39.0656 64.5667 39.0656 64.3381 39.0656C63.8427 39.0618 63.816 39.0316 63.938 38.5366C63.9837 38.3476 64.0409 38.1549 64.1285 37.9849C64.399 37.471 64.9553 37.2934 65.3821 37.675C65.7136 37.9736 65.9193 38.4157 66.1594 38.8086C66.1784 38.8389 66.0222 39.0467 65.9346 39.0543C65.6336 39.0845 65.3287 39.0656 65.0239 39.0656Z" fill="#F9F8F8"/>
<path d="M45.5568 39.0656C45.252 39.0656 44.951 39.0618 44.6462 39.0656C44.3871 39.0694 44.2994 38.9409 44.4137 38.7293C44.5928 38.4043 44.7643 38.0529 45.0158 37.7884C45.4997 37.282 46.1474 37.4181 46.4675 38.0416C46.879 38.8427 46.7495 39.0618 45.8731 39.0618C45.7664 39.0618 45.6597 39.0618 45.553 39.0618L45.5568 39.0656Z" fill="#F9F8F8"/>
<path d="M66.6051 57.6342C67.0166 57.6342 67.4281 57.6418 67.8396 57.6342C68.0987 57.6304 68.1902 57.7514 68.1864 57.9932C68.1864 58.2237 68.1673 58.4277 67.8625 58.4277C66.9785 58.4277 66.0983 58.4277 65.2143 58.424C64.8904 58.424 64.8866 58.1784 64.9438 57.9743C64.9781 57.8458 65.1267 57.6607 65.2372 57.6493C65.6906 57.6115 66.1479 57.6342 66.6051 57.6342Z" fill="#F2F1F1"/>
<path d="M43.9718 58.4278C43.5756 58.4278 43.1831 58.4202 42.7868 58.4278C42.5049 58.4353 42.3677 58.3295 42.3677 58.0348C42.3677 57.7514 42.4629 57.6229 42.764 57.6267C43.5984 57.638 44.4367 57.6418 45.2711 57.6267C45.5722 57.6229 45.6712 57.7476 45.6712 58.031C45.6712 58.3257 45.5303 58.4315 45.2483 58.424C44.8215 58.4164 44.3986 58.424 43.9718 58.424V58.4278Z" fill="#EFEFF0"/>
<path d="M61.0193 36.5868C61.1755 36.685 61.3317 36.7795 61.488 36.8777C61.4156 36.8739 61.347 36.8702 61.1755 36.8588C61.667 37.3803 62.1052 37.8337 62.5358 38.2947C62.9054 38.6915 62.8978 38.7217 62.4101 38.9485C61.5489 39.349 61.5337 39.3528 61.3432 38.4383C61.2136 37.8262 61.126 37.2027 61.0231 36.583L61.0193 36.5868Z" fill="#F3F2F3"/>
<path d="M49.1348 36.8588C49.2795 36.7681 49.4243 36.6775 49.5691 36.5868C49.4243 37.369 49.2834 38.1474 49.1386 38.9296C49.0852 39.2167 48.9404 39.315 48.6585 39.1714C48.3574 39.0203 48.045 38.8842 47.6602 38.7028C48.2698 38.0529 48.8109 37.4748 49.4053 36.8399C49.2681 36.8475 49.2033 36.8551 49.1348 36.8588Z" fill="#F2F1F1"/>
<path d="M65.1572 29.6112C64.9781 29.445 64.8028 29.2749 64.6199 29.1162C64.5285 29.0331 64.4256 28.9613 64.3265 28.8857C64.3151 28.8328 64.3037 28.7799 64.2922 28.7308L64.7723 27.1626C65.1115 27.2722 65.4201 27.5329 65.8126 27.3478C65.7897 27.4385 65.763 27.5254 65.7402 27.6161C65.7173 27.6765 65.6944 27.7332 65.6754 27.7937C65.5992 28.0657 65.523 28.3378 65.4468 28.6137C65.4049 28.7648 65.3591 28.916 65.3172 29.0671C65.302 29.1276 65.2829 29.188 65.2677 29.2485C65.2486 29.3089 65.2334 29.3656 65.2143 29.4261C65.1953 29.4903 65.1762 29.5546 65.1572 29.6188V29.6112Z" fill="#FCFCFC"/>
<path d="M53.2842 24.4004C53.2385 24.4495 53.1776 24.5704 53.1318 24.5629C53.0137 24.5478 52.8537 24.5062 52.7965 24.4231C52.5603 24.0716 52.3621 23.7013 52.1449 23.3386C51.7906 22.7415 51.4286 22.1483 51.0895 21.5475C51.0361 21.453 51.0742 21.3132 51.0704 21.1923C51.2038 21.2263 51.4096 21.2149 51.4591 21.2943C52.0649 22.2843 52.6479 23.2895 53.2385 24.287C53.2538 24.3135 53.2614 24.3437 53.2842 24.4004Z" fill="#EBEBEB"/>
<path d="M59.5864 21.3661C59.5407 21.4454 59.4988 21.521 59.453 21.6004C58.9158 22.5073 58.3823 23.4217 57.826 24.3135C57.7498 24.4382 57.5364 24.476 57.384 24.5553C57.3993 24.4117 57.3688 24.2379 57.4336 24.1246C57.9556 23.2101 58.4928 22.2994 59.0415 21.3963C59.1101 21.283 59.2854 21.2149 59.4264 21.1658C59.4911 21.1431 59.594 21.2225 59.6779 21.2527C59.6474 21.2905 59.6169 21.3283 59.5864 21.3623V21.3661Z" fill="#EBEBEB"/>
<path d="M66.2966 30.3292C66.4109 30.3557 66.5824 30.3481 66.6281 30.4199C66.9634 30.93 67.4283 30.9111 67.8893 30.6995C68.0608 30.6202 68.1332 30.3368 68.2513 30.1478C68.2932 30.1478 68.3352 30.1478 68.3809 30.1516C68.4304 30.2083 68.4799 30.2687 68.5257 30.3254C68.438 30.5106 68.3504 30.6995 68.3009 30.8015C68.4266 31.0812 68.5219 31.289 68.6133 31.4968C67.8703 31.5119 67.1311 31.5233 66.3881 31.5384L66.4186 31.5233L66.3881 31.5346C66.3995 31.4931 66.4109 31.4553 66.4224 31.4137V31.2323C66.3881 31.1076 66.6548 30.8809 66.2966 30.8658C66.2966 30.6844 66.2966 30.503 66.2966 30.3216V30.3292Z" fill="white"/>
<path d="M41.594 58.0083C41.7236 58.1557 41.8722 58.2841 41.9598 58.4429C42.0056 58.526 41.9751 58.7074 41.9065 58.7792C41.6436 59.0474 41.354 59.2931 41.0758 59.5425C40.7443 59.841 40.5995 59.4896 40.409 59.3422C40.169 59.1533 40.329 59.0097 40.489 58.8774C40.7672 58.6469 41.0415 58.4126 41.3235 58.1821C41.3921 58.1254 41.4721 58.0877 41.594 58.0083Z" fill="#EFEFF0"/>
<path d="M68.9637 58.0121C69.0971 58.0952 69.1924 58.1443 69.2724 58.2086C69.5086 58.3975 69.7487 58.5827 69.9697 58.7905C70.1221 58.9341 70.4536 59.0437 70.1564 59.3498C69.9201 59.5916 69.7068 59.8145 69.3753 59.448C69.1619 59.2137 68.8913 59.0323 68.6742 58.8018C68.6018 58.7263 68.5522 58.5411 68.598 58.458C68.678 58.2955 68.8304 58.167 68.9637 58.0121Z" fill="#F3F2F3"/>
<path d="M30.7499 61.5074C29.5077 61.5225 28.2617 61.5376 27.0196 61.549C25.4878 61.5603 23.9561 61.5641 22.4243 61.5716C22.5348 61.4998 22.6415 61.3638 22.752 61.3638C25.324 61.3525 27.8921 61.3525 30.4641 61.3638C30.5594 61.3638 30.6546 61.4621 30.7499 61.5112V61.5074Z" fill="#0C0B0A"/>
<path d="M61.5297 33.9832C61.4687 34.2326 61.4611 34.3989 61.3849 34.516C61.3316 34.5916 61.1372 34.6596 61.0648 34.6181C60.7105 34.4329 60.2761 33.4769 60.3752 33.0839C60.398 32.9857 60.6762 32.8572 60.6838 32.861C60.9886 33.2426 61.2782 33.6394 61.5297 33.9757V33.9832Z" fill="#EDEDED"/>
<path d="M50.2703 33.3031C50.236 33.9001 49.7902 34.2137 49.512 34.6067C49.4854 34.6445 49.2034 34.5803 49.1996 34.5463C49.1729 34.2931 49.1272 34.0172 49.1996 33.7867C49.272 33.5525 49.4663 33.3484 49.6302 33.1557C49.7369 33.0272 49.8931 32.9403 50.0264 32.8345C50.1065 32.9932 50.1903 33.1481 50.2703 33.3068V33.3031Z" fill="#EBEBEB"/>
<path d="M20.7782 61.5981C19.5665 61.6094 18.3548 61.6245 17.1393 61.6359C15.7905 61.6472 14.4416 61.6548 13.0928 61.6661C13.2147 61.5943 13.3404 61.4583 13.4624 61.4545C15.7905 61.4431 18.1186 61.4431 20.4467 61.4545C20.5572 61.4545 20.6677 61.5527 20.7782 61.6019V61.5981Z" fill="#0C0B0A"/>
<path d="M39.6243 61.4243C37.1209 61.4432 34.6213 61.4621 32.1179 61.481C32.2703 61.4092 32.4266 61.2731 32.579 61.2694C34.9642 61.2542 37.3457 61.258 39.731 61.258C39.731 61.2882 39.7271 61.3185 39.7233 61.3487C39.689 61.3752 39.6586 61.3978 39.6243 61.4243Z" fill="#0C0B0A"/>
<path d="M61.2478 52.8995C61.2478 53.0204 61.2669 53.1413 61.244 53.2585C61.2135 53.4058 61.1488 53.5457 61.0954 53.6892C60.9659 53.6023 60.8096 53.5381 60.7144 53.4247C60.3295 52.9713 60.341 52.7106 60.7639 52.3176C60.8515 52.2344 60.9887 52.208 61.1068 52.1551C61.1526 52.2685 61.2211 52.3818 61.244 52.499C61.2669 52.6274 61.2478 52.7672 61.2478 52.9033V52.8995Z" fill="#EDEDED"/>
<path d="M49.5958 52.019C49.7977 52.3516 50.0835 52.6236 50.095 52.907C50.1064 53.1489 49.8092 53.4096 49.6263 53.6439C49.6072 53.6666 49.3367 53.5721 49.3367 53.5192C49.31 53.1149 49.3138 52.7068 49.3291 52.2987C49.3291 52.2344 49.4396 52.1777 49.592 52.0153L49.5958 52.019Z" fill="#EDEDED"/>
<path d="M65.5955 24.4344C65.626 24.8425 65.6641 25.2544 65.687 25.6662C65.6984 25.8854 65.7136 26.1084 65.6755 26.32C65.6565 26.4296 65.5422 26.5694 65.4431 26.5996C65.2907 26.6487 65.1154 26.6109 64.9478 26.6147C65.0163 26.3729 65.0849 26.131 65.1535 25.8892C65.1688 25.8363 65.1878 25.7834 65.203 25.7305C65.2564 25.5416 65.3059 25.3488 65.3593 25.1599C65.3745 25.1221 65.3936 25.0843 65.4088 25.0465C65.3936 25.0201 65.3974 24.9974 65.4202 24.9823C65.4469 24.9105 65.4698 24.8387 65.4964 24.7631L65.5955 24.4382V24.4344Z" fill="#FCFCFC"/>
<path d="M50.518 10.1848C51.2153 10.2113 51.9126 10.2415 52.6099 10.268C52.5108 10.3322 52.4156 10.404 52.3165 10.4645C52.2022 10.5325 52.0841 10.5929 51.9698 10.6572C51.482 10.6232 50.9943 10.5929 50.5066 10.5589C50.5104 10.4342 50.5142 10.3095 50.5218 10.1848H50.518Z" fill="#342F2E"/>
<path d="M68.6169 31.5006C68.5216 31.2928 68.4302 31.0849 68.3044 30.8053C68.354 30.7033 68.4416 30.5144 68.5293 30.3292C68.655 30.3519 68.7807 30.3745 68.9065 30.3972C68.9065 30.7713 68.9065 31.1492 68.9065 31.5233C68.8112 31.5157 68.7122 31.5119 68.6169 31.5044V31.5006Z" fill="#FCFCFC"/>
<path d="M60.5696 12.5541C60.9887 12.0931 61.4079 11.6359 61.8308 11.1749C61.8651 11.2429 61.9032 11.3071 61.9375 11.3751C61.7584 11.5716 61.5946 11.7946 61.3926 11.9646C61.0306 12.2707 60.8058 12.6108 60.962 13.1058C60.8325 12.9206 60.7029 12.7355 60.5696 12.5541Z" fill="#D6524A"/>
<path d="M48.6624 11.1862C49.112 11.6623 49.5578 12.1347 50.0074 12.6108C49.8626 12.6864 49.7178 12.7657 49.573 12.8413C49.5235 12.6713 49.5159 12.4672 49.4168 12.3387C49.1539 11.9986 48.8452 11.6926 48.5557 11.3714C48.5938 11.3109 48.6281 11.2467 48.6662 11.1862H48.6624Z" fill="#D6524A"/>
<path d="M68.6171 31.5006C68.7123 31.5082 68.8114 31.5119 68.9067 31.5195C68.739 31.5497 68.5714 31.614 68.4037 31.6102C67.7331 31.5989 67.0625 31.5648 66.3918 31.5422C67.1349 31.5271 67.8741 31.5157 68.6171 31.5006Z" fill="#F5F5F5"/>
<path d="M64.5933 31.6895C64.4752 31.1416 64.7533 30.6957 64.9782 30.2347C64.8486 30.7184 64.7229 31.2021 64.5933 31.6895Z" fill="#F5F5F5"/>
<path d="M68.2208 26.524C68.198 26.0706 68.1713 25.6171 68.1484 25.1675C68.1713 25.6209 68.198 26.0744 68.2208 26.524Z" fill="#F5F5F5"/>
<path d="M68.1178 24.1661C68.0949 23.8033 68.0758 23.4406 68.053 23.0816C68.0758 23.4444 68.0949 23.8071 68.1178 24.1661Z" fill="#F5F5F5"/>
<path d="M64.2922 28.727C64.3037 28.7799 64.3151 28.8328 64.3265 28.8819C64.2808 29.1011 64.2503 29.3241 64.1855 29.5357C64.1665 29.6037 64.056 29.6452 63.9912 29.6981C64.0903 29.3732 64.1932 29.0482 64.2922 28.7232V28.727Z" fill="#F5F5F5"/>
<path d="M67.6377 19.5674C67.5424 19.609 67.4472 19.6506 67.3557 19.6921C67.3214 19.5485 67.2833 19.4049 67.249 19.2614C67.3786 19.3634 67.5081 19.4654 67.6377 19.5674Z" fill="#F5F5F5"/>
<path d="M64.1171 33.594C63.9799 33.4328 64.037 33.2225 64.2885 32.963C64.2314 33.1746 64.1742 33.3862 64.1171 33.594Z" fill="#F5F5F5"/>
<path d="M68.3808 30.1516C68.3389 30.1516 68.2969 30.1516 68.2512 30.1478C68.2512 30.0874 68.2512 30.0269 68.2512 29.9665C68.2779 29.8153 68.3084 29.6679 68.335 29.5168C68.3503 29.7284 68.3655 29.94 68.3808 30.1516Z" fill="#F5F5F5"/>
<path d="M63.9418 34.3195C63.816 34.0966 63.7932 33.8963 64.0827 33.7754C64.037 33.9568 63.9875 34.1381 63.9418 34.3195Z" fill="#F5F5F5"/>
<path d="M67.1387 19.1744C66.8224 19.2916 66.6548 19.216 66.7158 18.8495C66.8567 18.959 66.9977 19.0648 67.1387 19.1744Z" fill="#F5F5F5"/>
<path d="M66.2965 30.8734C66.6547 30.8885 66.3918 31.1152 66.4223 31.2399C66.3804 31.2399 66.3384 31.2399 66.2927 31.2399C66.2927 31.119 66.2927 30.9981 66.2927 30.8771L66.2965 30.8734Z" fill="#FCFCFC"/>
<path d="M66.426 18.6303C66.2127 18.6454 66.0259 18.6303 66.0602 18.3393C66.1822 18.4376 66.3041 18.532 66.426 18.6303Z" fill="#F5F5F5"/>
<path d="M65.8201 22.9834C66.0297 23.0816 66.0221 23.1723 65.8125 23.2592C65.8125 23.1685 65.8163 23.0741 65.8201 22.9834Z" fill="#F5F5F5"/>
<path d="M63.6903 30.6995C63.6636 30.7902 63.6331 30.8809 63.6064 30.9678C63.6331 30.8771 63.6636 30.7864 63.6903 30.6995Z" fill="#F5F5F5"/>
<path d="M68.3312 29.2447C68.255 29.2258 68.1787 29.2069 68.1025 29.188C68.1025 29.1654 68.1025 29.1427 68.1025 29.12C68.1787 29.1011 68.255 29.0822 68.3273 29.0633C68.3273 29.1238 68.3274 29.1842 68.3312 29.2485V29.2447Z" fill="#F5F5F5"/>
<path d="M65.6755 27.7861C65.6984 27.7257 65.7213 27.669 65.7403 27.6085C65.7175 27.669 65.6946 27.7257 65.6755 27.7861Z" fill="#F5F5F5"/>
<path d="M66.2927 31.2361C66.3346 31.2361 66.3766 31.2361 66.4223 31.2361C66.4223 31.2965 66.4223 31.357 66.4223 31.4175C66.3804 31.4212 66.3385 31.425 66.2965 31.4288C66.2965 31.3646 66.2965 31.3003 66.2965 31.2323L66.2927 31.2361Z" fill="#F5F5F5"/>
<path d="M63.8807 30.0647C63.8579 30.1289 63.835 30.1894 63.8083 30.2536C63.8312 30.1894 63.8541 30.1289 63.8807 30.0647Z" fill="#F5F5F5"/>
<path d="M50.5216 10.0148C50.5216 10.0715 50.5216 10.1319 50.5216 10.1886C50.4721 10.1659 50.4226 10.1471 50.373 10.1244L50.5216 10.0148Z" fill="#342F2E"/>
<path d="M65.4925 24.7594C65.4658 24.8312 65.4429 24.903 65.4163 24.9785C65.4429 24.9067 65.4658 24.8349 65.4925 24.7594Z" fill="#F5F5F5"/>
<path d="M61.3934 35.6952C61.3627 35.6913 61.332 35.6875 61.3013 35.6799C61.332 35.6837 61.3627 35.6875 61.3934 35.6952Z" fill="#F3F2F3"/>
<path d="M65.3973 21.385C65.3668 21.4303 65.3363 21.4794 65.302 21.5248C65.3325 21.4794 65.363 21.4303 65.3973 21.385Z" fill="#F5F5F5"/>
<path d="M66.2966 31.4326C66.3385 31.4288 66.3805 31.425 66.4224 31.4213C66.4109 31.4628 66.3995 31.5006 66.3881 31.5422C66.3576 31.5044 66.3271 31.4704 66.2966 31.4326Z" fill="#FCFCFC"/>
<path d="M44.0634 24.4911C43.9452 26.3918 43.8309 28.1564 43.7242 29.9211C43.709 30.1592 43.6709 30.3443 43.3699 30.3254C43.0765 30.3065 43.0879 30.11 43.1108 29.9022C43.2899 28.13 43.4689 26.3578 43.6595 24.5856C43.6709 24.4646 43.7928 24.3513 43.8652 24.2379C43.9529 24.3513 44.0443 24.4646 44.0634 24.4911Z" fill="#3C3A3A"/>
<path d="M46.7534 35.1244C46.7267 35.1584 46.7076 35.1811 46.6886 35.2037C46.6657 35.166 46.6352 35.1319 46.6238 35.0942C46.62 35.0828 46.6581 35.0564 46.681 35.0375C46.7076 35.0677 46.7305 35.0979 46.7572 35.1282L46.7534 35.1244Z" fill="#242424"/>
<path d="M65.3516 42.5269C65.1344 43.4678 64.9363 44.3331 64.7343 45.1985C64.4181 46.5626 64.098 47.9267 63.7779 49.2908C63.7627 49.3626 63.7627 49.4533 63.717 49.5062C63.6255 49.6158 63.5074 49.7065 63.4007 49.8047C63.3436 49.6725 63.2254 49.5289 63.2445 49.4042C63.3207 48.9281 63.4426 48.4595 63.5493 47.9909C63.938 46.2565 64.3304 44.5221 64.7191 42.7914C64.7419 42.6894 64.7381 42.5571 64.8029 42.4929C64.8944 42.3984 65.0353 42.3115 65.1573 42.3077C65.2259 42.3077 65.3021 42.474 65.3478 42.5307L65.3516 42.5269Z" fill="#3A3836"/>
<path d="M47.523 49.6989C47.4049 49.7329 47.2716 49.8236 47.1763 49.7896C47.0467 49.748 46.8791 49.6309 46.8486 49.5138C46.6467 48.7391 46.4714 47.9607 46.2923 47.1823C45.9494 45.6973 45.6026 44.216 45.2788 42.7272C45.2521 42.5987 45.3169 42.3531 45.4083 42.3077C45.6522 42.1982 45.7474 42.3871 45.797 42.6063C46.3037 44.8735 46.8143 47.1407 47.3249 49.4042C47.3363 49.4495 47.3478 49.4911 47.3592 49.5364C47.4125 49.5893 47.4697 49.646 47.523 49.6989Z" fill="#3A3836"/>
<path d="M56.2602 16.261C56.2373 16.5633 56.2335 16.8656 56.184 17.1641C56.1649 17.2662 56.0353 17.3531 55.9553 17.4438C55.8791 17.3493 55.7381 17.2548 55.7381 17.1604C55.7191 16.5558 55.7153 15.9512 55.742 15.3504C55.7458 15.2521 55.9439 15.1652 56.0544 15.0707C56.142 15.1803 56.2906 15.2861 56.2983 15.4033C56.3211 15.6867 56.283 15.9739 56.2678 16.261C56.2678 16.261 56.2678 16.261 56.264 16.261H56.2602Z" fill="#3A3836"/>
<path d="M54.755 16.2573C54.755 16.5596 54.774 16.8619 54.7435 17.1604C54.7359 17.2586 54.6025 17.3455 54.5263 17.4362C54.4501 17.3569 54.3206 17.2813 54.313 17.1944C54.2482 16.5822 54.1986 15.9663 54.1758 15.3466C54.1758 15.2597 54.3625 15.0783 54.4349 15.0934C54.553 15.1161 54.7245 15.2521 54.7397 15.3579C54.7816 15.6527 54.755 15.9587 54.755 16.261V16.2573Z" fill="#342F2E"/>
<path d="M67.4588 29.8757C67.4283 30.0647 67.5197 30.3254 67.173 30.3292C66.8263 30.3292 66.8453 30.0798 66.8301 29.8606C66.7805 29.2031 66.7386 28.5419 66.6929 27.8806C66.6929 27.8503 66.6929 27.8201 66.6929 27.7899C66.6624 27.3667 66.6319 26.9435 66.6014 26.5202C66.5748 25.9043 66.5367 25.2846 66.5291 24.6687C66.5291 24.5289 66.6205 24.3853 66.6738 24.2455C66.7653 24.3777 66.9177 24.5024 66.933 24.6422C67.0701 25.8098 67.1768 26.9812 67.2949 28.1526C67.3064 28.2169 67.314 28.2811 67.3254 28.3416C67.3711 28.8517 67.4207 29.3656 67.4664 29.8757H67.4588Z" fill="#3C3A3A"/>
<path d="M67.3176 28.3416C67.3062 28.2773 67.2985 28.2131 67.2871 28.1526C67.2985 28.2169 67.3062 28.2811 67.3176 28.3416Z" fill="#F5F5F5"/>
<path d="M60.5695 12.5541C60.699 12.7393 60.8286 12.9244 60.9619 13.1058C60.9619 13.2494 60.9619 13.393 60.9658 13.5366C60.9543 13.631 60.9391 13.7293 60.9276 13.8238C60.8934 13.9409 60.8591 14.0618 60.8248 14.179C60.8095 14.2205 60.7905 14.2583 60.7752 14.2999C60.5962 14.7118 60.3675 15.135 59.876 15.1463C59.3997 15.1576 59.0873 14.7949 58.8739 14.3943C58.7177 14.0958 58.6148 13.7709 58.5386 13.5744C59.274 13.2078 59.9217 12.8791 60.5733 12.5541H60.5695Z" fill="#CA2522"/>
<path d="M57.6546 12.1082C57.3536 11.976 57.5136 11.7908 57.6089 11.6283C57.6927 11.481 57.7346 11.2278 58.0128 11.3903C57.8947 11.6283 57.7727 11.8702 57.6546 12.1082Z" fill="#242424"/>
<path d="M49.5691 12.8375C49.7139 12.762 49.8587 12.6826 50.0035 12.607C50.6284 12.9131 51.2571 13.223 51.9391 13.5593C51.8705 14.0165 51.6305 14.5191 51.1809 14.912C50.7579 15.2786 50.4607 15.2483 50.0492 14.8251C50.0035 14.7722 49.9578 14.7193 49.912 14.6664C49.8892 14.6589 49.8777 14.64 49.8777 14.6173C49.8473 14.5644 49.8168 14.5115 49.7863 14.4548L49.7825 14.4473C49.7215 14.2999 49.6605 14.1525 49.5996 14.0014V13.9976C49.5843 13.6688 49.5653 13.3401 49.55 13.0113C49.5577 12.9547 49.5653 12.898 49.5691 12.8413V12.8375Z" fill="#CA2522"/>
<path d="M51.9696 10.6572C52.0839 10.593 52.2021 10.5325 52.3164 10.4645C52.4192 10.404 52.5145 10.336 52.6098 10.268C52.625 10.234 52.6517 10.2264 52.686 10.2378C52.7507 10.3398 52.8193 10.4456 52.8841 10.5476C52.7546 10.6421 52.6288 10.7366 52.4993 10.831C52.3697 10.831 52.2364 10.831 52.1068 10.831C52.0611 10.7743 52.0115 10.7177 51.9658 10.6572H51.9696Z" fill="#242424"/>
<path d="M49.6035 14.0014C49.6645 14.1487 49.7254 14.2961 49.7864 14.4473C49.7254 14.2999 49.6645 14.1525 49.6035 14.0014Z" fill="#D6524A"/>
<path d="M49.79 14.451C49.8205 14.5039 49.851 14.5568 49.8815 14.6135C49.851 14.5606 49.8205 14.5077 49.79 14.451Z" fill="#D6524A"/>
<path d="M52.4994 10.831C52.629 10.7366 52.7547 10.6421 52.8843 10.5476C54.4236 10.2945 55.963 10.234 57.4986 10.5514C58.0625 10.6685 58.0892 10.7328 57.7386 11.1522C57.2052 11.7908 57.0108 12.5352 57.0718 13.3439C57.0985 13.6651 56.9918 13.7898 56.6755 13.786C55.7191 13.7822 54.7589 13.786 53.8025 13.786C53.593 13.786 53.3796 13.7709 53.4101 13.4837C53.5092 12.4597 53.1738 11.5906 52.4956 10.831H52.4994Z" fill="#FAF9FA"/>
<path d="M66.6891 27.7899C66.6891 27.8201 66.6891 27.8504 66.6891 27.8806C66.6777 27.8579 66.6624 27.839 66.6548 27.8164C66.6548 27.8126 66.6738 27.7975 66.6853 27.7899H66.6891Z" fill="#F5F5F5"/>
</svg>
